<?xml version="1.0" encoding="UTF-8"?><svg xmlns="http://www.w3.org/2000/svg" viewBox="0 0 9114.4 4342.7"><g style="fill:none; isolation:isolate;"><g id="g"><polygon points="6247.1 3815.6 3475.9 3815.6 3479.1 1936.2 6250.3 1936.2 6247.1 3815.6" style="fill:#ec608d;"/><path d="m5220.9,3239.9h0s0,0,0,0Z"/><rect x="6349.5" y="1939.1" width="2764.5" height="1875.2" style="fill:#fbd355; stroke:#ffe66e; stroke-miterlimit:10;"/><path d="m8116.5,3217.3h0s0,0,0,0Z"/><path d="m4600.6,2718.1c-2.5-1.5-6.5-2-12.1-1.7l-27,1.5-3.2,23.1,27-1.5c5.1-.3,9.2-1.2,12.4-2.7,3.1-1.5,5.1-4.9,5.8-10.1.6-4.3-.4-7.2-2.8-8.7Z" style="fill:#cc527e;"/><path d="m4594.7,2804.2c-3.1-1.2-7.6-1.7-13.4-1.4l-31.9,1.8-3.6,25.3,31.9-1.8c5.1-.3,9.6-1.2,13.4-2.7,3.8-1.5,6.2-5.4,7.2-11.5.7-5.2-.5-8.4-3.6-9.7Z" style="fill:#cc527e;"/><path d="m4792.1,2756.9c-13.9.8-22.2,12.2-25.1,34.2-1,6.3-1.3,11.5-.9,15.7.4,4.2,1.3,7.4,2.8,9.9,1.5,2.4,3.4,4.1,5.7,5,2.4.9,5.1,1.3,8.3,1.1,6.3-.3,11.6-3,15.9-7.8,4.4-4.9,7.4-13.6,9.2-26.1,2.9-22.1-2.4-32.7-15.9-32Z" style="fill:#cc527e;"/><path d="m4997.5,2746.5c-2.6.1-5.6,1.2-8.8,3-3.2,1.9-6.3,4.7-9.2,8.4l-5.9,42c1.5,2.8,3.4,5,5.8,6.8,2.4,1.7,5.5,2.5,9.3,2.3,6.4-.4,11.8-3.4,16.2-9,4.4-5.7,7.3-13.5,8.7-23.6,1.2-8.8.5-16-2-21.8-2.5-5.7-7.3-8.4-14.3-8Z" style="fill:#cc527e;"/><path d="m5177.9,2799.5c-.5,3.2.2,5.6,2.1,7,1.9,1.4,4.5,2,7.8,1.8,3.1-.2,6.3-1.2,9.4-3.1,3.1-1.9,5.1-4.1,6-6.6.9-1.8,1.4-3.4,1.5-4.6l1.3-8.6c-7.3.4-13.6,1.6-18.9,3.6-5.3,2-8.4,5.5-9.1,10.5Z" style="fill:#cc527e;"/><path d="m5309.5,2714.8c-1.5-10.1-5.3-18.8-11.5-26.3l-4.8-5.6c-5.5-10-14.6-17.8-27.1-23.3-12.6-5.5-29.7-7.7-51.5-6.5-7.4.4-14.9,1.4-22.5,3-7.6,1.6-15.1,3.5-22.6,5.8-7.5,2.3-14.7,4.9-21.7,7.7-7,2.9-13.5,5.8-19.6,8.8l-10.9,80.2c-2.8,2.9-5.4,6-7.8,9.2.8-12.3,0-23.5-2.1-33.6-3-14-8.3-25.6-16-34.8l-3.2-3.8c-6.2-11-14.6-19.3-25.1-24.9-10.5-5.6-22.7-7.9-36.7-7.2l-4.9.3,5.9-41.4-9.7-13.6-101.4,5.6-17,121.9c-2.8-8.2-6.7-15.3-11.6-21.2l-3.7-4.1c-7.2-13-17.6-22.2-31.3-27.9-13.7-5.6-30.1-7.9-49-6.9-16,.9-30.8,4-44.5,9.4-13.7,5.4-25.8,13-36.3,23-10.5,9.9-19.3,22.2-26.4,36.7-5.1,10.6-9.1,22.5-11.9,35.6-1.8-3.8-4-7.2-6.5-10.4,5.1-6.5,9.3-13.7,12.6-21.5,3.3-7.8,5.6-16.2,6.9-24.9,1.9-12.9,1.9-24-.2-33.1-2.1-9.1-5.6-16.7-10.6-22.6l-4.8-5.6c-3.7-6.9-8.6-12.5-14.8-16.7-6.2-4.2-13.1-7.4-20.8-9.7-7.7-2.2-15.8-3.6-24.4-4.1-8.6-.5-17.3-.5-26.1,0l-105.6,5.9-39,279.9,11.3,11.9,107.1-6c13.4-.7,26.6-2.8,39.9-6.1,13.2-3.3,25.3-8.7,36.3-16,3.1-2.1,6.1-4.4,8.9-6.8l7.8-55.9,37.1-2.1c0-.1,0-.3-.1-.4-2.5-11.6-2.6-25.5-.3-41.6,2.2-16.1,6.3-30.3,12.2-42.3,5.9-12.1,13.2-22.3,22-30.6,8.8-8.3,18.9-14.7,30.3-19.2,11.4-4.5,23.8-7.1,37.2-7.8,13.4-.7,25.2.5,35.4,3.8,10.3,3.3,18.7,8.6,25.3,16.1,6.6,7.5,11.2,17,13.7,28.6,2.5,11.6,2.7,25.5.5,41.6-2.2,16.1-6.3,30.3-12.2,42.3-3.7,7.6-8,14.4-12.8,20.5,0,0,0,0,0,0,.9.6,1.7,1.2,2.6,1.9,1.7,1.3,3.3,2.7,4.8,4.1,3.8,3.7,7,7.9,9.6,12.7l4.2,5c.2.2.4.5.5.7,3.4-4.2,6.5-8.7,9.4-13.5l-3.2,23.3c1.1,2.1,2,4.3,2.8,6.6.5,1.3,1,2.7,1.4,4.1.5,1.6.9,3.2,1.3,4.9.2,1.1.5,2.2.7,3.3.1.6.2,1.2.3,1.8l1.1,1.2,1.5-.7.7-.3c6.3-3.1,13-6.1,20.1-9,2.7-1.1,5.4-2.2,8.2-3.2,4.6-1.7,9.4-3.3,14.1-4.8,1.7-.5,3.5-1,5.3-1.5,6-1.7,12-3.2,18.1-4.4,6.9-1.4,13.7-2.4,20.4-2.9,1,0,1.9-.1,2.9-.2h.4c7.2-.4,13.9-.5,20.2-.1,6.3.3,12.1,1,17.5,2,6.5,1.2,12.3,3,17.4,5.2,0,0,.1,0,.2,0,1.8.8,3.5,1.6,5.2,2.5,1.6.8,3.1,1.7,4.6,2.7,8.2-4.9,15.9-10.9,23.2-18.2,9.2-9.2,17.3-20.4,24.3-33.5.4,3.8,1,7.3,2,10.6,2.8,9.8,7.8,17.5,15.1,23.2l5.1,6.1c1.6,2,3.4,3.8,5.4,5.4.6-.3,1.1-.6,1.7-1,1.7-.9,3.4-1.8,5.2-2.6,2.6-1.3,5.3-2.4,8-3.5,3.6-1.4,7.2-2.7,11-3.8,11.2-3.4,23.2-5.4,35.7-6.1h.3c2.5-.2,5-.2,7.4-.3s4.8,0,7.2,0c2.4,0,4.7.2,6.9.4,8,.7,15.4,2.1,22.4,4.2,3,.9,5.8,1.9,8.6,3,4.7,1.9,9.1,4.3,13.1,7,2.5,1.7,4.9,3.6,7.2,5.6l37.1-2.1,19-135.6c1.6-12.2,1.7-23.3.3-33.4Zm-638.9-2.7c-1.4,10.2-4.6,19.4-9.5,27.5-4.9,8.1-11.2,15.3-18.8,21.6,7.9,4.9,13.8,11.6,17.6,20.1,3.9,8.5,4.8,19.4,2.9,32.7-2.1,15.1-6.5,27.5-13.1,37.3-6.6,9.8-14.5,17.7-23.7,23.7-9.3,6-19.5,10.4-30.7,13.1-11.2,2.7-22.4,4.3-33.6,4.9l-90.8,5,33.9-242.2,88.3-4.9c10.4-.6,20.6-.3,30.7.8,10.1,1.1,18.9,3.8,26.5,8.1,7.6,4.3,13.3,10.6,17.2,18.9,3.9,8.3,4.8,19.4,3,33.2Zm410.4,58.6c-2.2,16.3-6.4,30.7-12.5,43.1-6.1,12.4-13.3,22.9-21.7,31.5-8.4,8.6-17.5,15.1-27.3,19.7-9.8,4.6-19.5,7.1-29.1,7.6-8.2.5-15.4-.6-21.4-3.1-6-2.5-11-6-15.1-10.4l-8.2,12.5-48.7,2.7,33.9-242.2,66.8-3.7-9.1,64.1c5-2.8,10.3-5.1,15.9-6.9,5.6-1.8,12-2.9,19.3-3.3,10.2-.6,19.3,1.1,27.3,5,8,3.9,14.5,9.7,19.6,17.3,5.1,7.6,8.5,17.1,10.4,28.3,1.9,11.2,1.9,23.8,0,37.8Zm201.3-34.4l-16.5,117.6-58.9,3.3-6.7-9.5c-7,5.2-14.2,9.2-21.5,11.9-7.4,2.7-14.5,4.3-21.5,4.7-8.6.5-16.1-.3-22.7-2.2-6.6-2-11.9-5.1-16.2-9.5-4.2-4.4-7.1-10-8.8-16.9-1.6-6.9-1.8-15-.5-24.5,1.5-11.3,5.1-21.2,10.9-29.8,5.7-8.6,13.1-15.9,22.2-21.8,9.1-5.9,19.6-10.7,31.5-14.4,11.9-3.7,24.9-6.4,39-8-.1-2-1.6-3.4-4.3-4.4-2.8-1-7.6-1.3-14.6-.9-4.8.3-9.8,1-15,2.2-5.2,1.2-10.4,2.6-15.6,4.3-5.2,1.7-10.2,3.6-14.9,5.6-4.8,2-8.9,4.1-12.4,6.3l8.3-60.3c8.2-4,18.3-7.8,30.1-11.4,11.9-3.6,24.5-5.8,37.8-6.5,15.2-.8,27.6.2,37.3,3.1,9.7,2.9,17.2,7.3,22.6,13.2,5.4,5.8,8.8,12.9,10.2,21.2,1.5,8.3,1.5,17.3.3,27Z" style="fill:#cc527e;"/><path d="m5279.3,2945.3c2.7,13.6,2.8,29.7.2,48.2-2.7,19.2-7.6,36-14.4,50.3-6.9,14.4-15.6,26.4-26,36.3-10.5,9.8-22.5,17.4-36.1,22.7-13.6,5.3-28.3,8.4-44.1,9.3-16.5.9-31-.7-43.4-4.8-12.5-4.1-22.7-10.9-30.7-20.5l-4-5.1c-8.2-7.1-14.4-16.3-18.5-27.6l-8.5,60.4-83.1,4.6-3.7-4.6c-6.4,3.4-12.9,6-19.4,7.9-6.5,1.9-12.8,3-18.9,3.3-11.9.7-22.2-.5-31-3.5-8.8-3-15.8-7.7-21.1-14.2l-5.1-6.1c-7.3-5.6-12.3-13.4-15.1-23.2-.3-1.1-.6-2.1-.8-3.3-.8,1.5-1.7,3-2.6,4.4-7.8,12.3-17.3,22.1-28.3,29.5-11,7.4-23.1,12.7-36.3,16-13.2,3.3-26.5,5.3-39.9,6.1l-107.1,6-11.3-11.9,39-279.9,105.6-5.9c8.7-.5,17.4-.5,26.1,0s16.8,1.9,24.4,4.1c7.6,2.2,14.6,5.5,20.8,9.7,6.2,4.2,11.1,9.7,14.8,16.7l4.8,5.6c5,6,8.5,13.5,10.6,22.6,2.1,9.1,2.2,20.2.2,33.1-1.3,8.8-3.6,17.1-6.9,25s-7.5,15-12.6,21.5c5.2,6.5,8.9,14.3,11.1,23.4.3,1.1.5,2.2.7,3.3,3.5-5.5,7.5-10.7,12.1-15.5l10.9-80.2c6.1-3,12.7-6,19.6-8.8s14.2-5.5,21.7-7.8c7.5-2.3,15-4.2,22.6-5.8,7.6-1.6,15.1-2.6,22.5-3,21.8-1.2,38.9,1,51.5,6.5,12.5,5.5,21.6,13.3,27.1,23.3l4.8,5.6c5.7,6.8,9.4,14.8,11.1,23.7.2-.3.3-.7.5-1,7.1-14.5,15.8-26.8,26.4-36.7,10.5-9.9,22.6-17.6,36.3-23,13.7-5.4,28.5-8.5,44.5-9.4,19-1.1,35.3,1.2,49,6.9,13.7,5.6,24.2,14.9,31.3,27.9l3.7,4.1c7.3,8.9,12.3,20.1,15,33.7Zm-26.8,36.3c2.2-16.1,2.1-30-.5-41.6-2.5-11.6-7.1-21.1-13.7-28.6-6.6-7.5-15.1-12.8-25.3-16.1-10.3-3.3-22.1-4.5-35.4-3.8-13.4.7-25.7,3.3-37.2,7.8-11.4,4.5-21.5,10.9-30.3,19.2-8.8,8.3-16.1,18.5-22,30.6-5.9,12.1-9.9,26.2-12.2,42.3-2.2,16.1-2.1,30,.3,41.6,2.5,11.6,7,21.1,13.6,28.5,6.6,7.4,15.1,12.7,25.5,15.9,10.3,3.2,22.2,4.5,35.6,3.8,13.4-.7,25.7-3.3,37.2-7.8,11.4-4.5,21.5-10.8,30.3-19,8.8-8.2,16.1-18.4,22-30.5,5.9-12.1,9.9-26.2,12.2-42.3Zm-206.8-14.7c1.3-9.7,1.2-18.7-.3-27-1.5-8.3-4.9-15.4-10.2-21.2-5.4-5.8-12.9-10.2-22.6-13.2-9.7-2.9-22.1-4-37.3-3.1-13.4.7-26,2.9-37.8,6.5-11.9,3.6-21.9,7.4-30.1,11.4l-8.3,60.3c3.5-2.1,7.7-4.3,12.4-6.3,4.8-2,9.8-3.9,15-5.6,5.2-1.7,10.4-3.2,15.6-4.3,5.2-1.2,10.2-1.9,15-2.2,6.9-.4,11.8,0,14.6.9,2.8,1,4.2,2.5,4.3,4.4-14.1,1.7-27.1,4.4-39,8-11.9,3.7-22.4,8.5-31.5,14.4-9.1,5.9-16.5,13.2-22.2,21.8-5.7,8.6-9.3,18.5-10.9,29.8-1.3,9.5-1.1,17.7.5,24.5,1.6,6.9,4.5,12.5,8.8,16.9,4.2,4.4,9.6,7.6,16.2,9.5,6.6,2,14.1,2.7,22.7,2.2,6.9-.4,14.1-1.9,21.5-4.7,7.4-2.7,14.5-6.7,21.5-11.9l6.7,9.5,58.9-3.3,16.5-117.6Zm-196.4-47.3c1.9-13.8.9-24.9-3-33.2-3.9-8.3-9.6-14.6-17.2-18.9-7.6-4.3-16.4-7-26.5-8.1-10.1-1.1-20.3-1.4-30.7-.8l-88.3,4.9-33.9,242.2,90.8-5c11.2-.6,22.4-2.3,33.6-4.9,11.2-2.7,21.4-7,30.7-13.1,9.3-6,17.2-14,23.7-23.7,6.6-9.8,10.9-22.2,13.1-37.3,1.9-13.3.9-24.2-2.9-32.7-3.9-8.5-9.7-15.2-17.6-20.1,7.6-6.3,13.8-13.5,18.8-21.6,4.9-8.1,8.1-17.3,9.5-27.5Z" style="fill:#cc527e;"/><path d="m5168.8,2953.5c13.5-.8,18.8,9.9,15.9,32-1.8,12.6-4.9,21.3-9.2,26.1-4.4,4.9-9.7,7.5-15.9,7.8-3.1.2-5.9-.2-8.3-1.1-2.4-.9-4.3-2.6-5.7-5-1.5-2.4-2.4-5.7-2.8-9.9-.4-4.2-.1-9.4.9-15.7,2.9-22.1,11.3-33.5,25.1-34.2Z" style="fill:#cc527e;"/><path d="m4969.3,3016.1l-1.3,8.6c0,1.3-.6,2.8-1.5,4.6-.8,2.5-2.8,4.7-6,6.6-3.1,1.9-6.2,2.9-9.4,3.1-3.3.2-5.9-.4-7.8-1.8-1.9-1.4-2.6-3.7-2.1-7,.7-5,3.7-8.5,9.1-10.5,5.3-2,11.6-3.2,18.9-3.6Z" style="fill:#cc527e;"/><path d="m4779.4,2925.7c2.5,1.5,3.4,4.3,2.8,8.6-.7,5.2-2.6,8.6-5.8,10.1-3.1,1.5-7.3,2.4-12.4,2.7l-27,1.5,3.2-23.1,27-1.5c5.6-.3,9.6.3,12.1,1.7Z" style="fill:#cc527e;"/><path d="m4773.5,3011.8c3.1,1.2,4.3,4.5,3.6,9.7-1,6.1-3.4,9.9-7.2,11.5-3.8,1.5-8.3,2.5-13.4,2.7l-31.9,1.8,3.6-25.3,31.9-1.8c5.8-.3,10.2.1,13.4,1.4Z" style="fill:#cc527e;"/><path d="m4576.6,3085.6l38.3,50-88.8,4.9-4.9-5.8c-6.1,3.1-12.6,5.6-19.4,7.3-6.8,1.8-13,2.8-18.6,3.1-10.5.6-19.5-.7-27.1-3.8-7.5-3.1-13.7-7.6-18.5-13.3l-3-3.6c-6.3-5.7-10.7-12.7-13.4-20.9-2.6-8.2-3.3-17.2-2.1-27,1.3-10.5,4.1-19.9,8.4-28.2,4.3-8.2,10-15.7,16.8-22.4-1.7-6.8-2.1-14.3-1.2-22.4.8-7.2,2.9-14.6,6.3-22.1,3.4-7.5,8.1-14.3,13.9-20.5,5.8-6.2,12.7-11.3,20.8-15.4,8.1-4.1,17.3-6.4,27.5-7,10.3-.6,19.2,1,26.9,4.6,7.6,3.7,13.5,9.2,17.5,16.5l3.2,3.6c3.7,4.6,6.3,10,7.9,16.4,1.6,6.3,2,13.5,1.2,21.5-.7,3.8-1.6,7.5-2.6,10.9l32.6-1.8,6.7,9.6c-4.8,14.8-9.6,27.7-14.5,38.7-4.9,11-9.5,20-14,27Zm4.8-61.1l-40.1,2.2c-1.2,3.2-2.9,6.7-5,10.4-2.1,3.7-4.1,7.1-6.2,10.3l-8.9-12.2c7.8-5.5,14.1-11.7,19-18.6,4.9-6.9,7.8-14.8,8.9-23.5.8-6.7.4-12.7-1.3-18-1.6-5.3-4.2-9.7-7.7-13.2-3.5-3.5-7.8-6.1-13-7.9-5.2-1.7-11-2.4-17.4-2.1-8.1.5-15.3,2.3-21.7,5.5s-12,7.2-16.5,12c-4.6,4.8-8.3,10.1-11,15.8-2.7,5.8-4.5,11.5-5.2,17.2-.4,4.8-.3,9.4.4,13.7.7,4.3,1.9,8.4,3.5,12.4-7.6,5.7-13.9,12.5-18.7,20.2-4.8,7.8-7.9,16.8-9.2,27.1-.8,6.7-.4,13.1,1.2,19.1,1.6,6,4.3,11.2,8.2,15.6,3.9,4.4,9,7.7,15.1,10.1,6.2,2.4,13.4,3.3,21.7,2.9,6.2-.3,12.9-1.6,20.2-3.8,7.3-2.2,14.1-5.4,20.3-9.8l7,8.7,56.7-3.2-27.7-36.3c5.1-6.7,10-14.6,14.7-23.7,4.6-9.1,8.9-19.4,12.7-30.9Z" style="fill:#cc527e;"/><path d="m4509.1,2990.1c.8,1.5,1.1,3.2.8,5.2-.3,2.3-1.3,4.5-2.9,6.6-1.6,2.1-3.9,4.5-6.9,7.2-2.6-4.1-3.6-8.4-3.2-12.7.2-2.2,1-4.1,2.3-5.7,1.3-1.6,3-2.5,5.1-2.6,2.3-.1,3.9.5,4.7,2Z" style="fill:#cc527e;"/><path d="m4479.5,3057.7l17.6,23.4c-2.8.8-5.5,1.2-8.3,1.1-2.8,0-5.2-.6-7.4-1.7-2.2-1.1-3.8-2.7-5-4.8-1.2-2.1-1.6-4.9-1.2-8.3.1-1.6.7-3.3,1.6-5,.9-1.7,1.8-3.2,2.6-4.7Z" style="fill:#cc527e;"/><path d="m5709.5,898.5c1.5,10.1,1.4,21.2-.2,33.4l-19,135.6-37.1,2.1c-2.3-2-4.7-3.9-7.2-5.6-4-2.7-8.4-5.1-13.1-7-2.8-1.1-5.6-2.1-8.6-3-6.9-2.1-14.4-3.5-22.4-4.2-2.3-.2-4.6-.3-7-.4s-4.8-.1-7.2,0c-2.4,0-4.9.1-7.4.2h-.3c-12.5.7-24.4,2.8-35.7,6.2-3.7,1.1-7.4,2.4-11,3.8-2.7,1.1-5.4,2.2-8,3.5-1.8.8-3.5,1.7-5.2,2.6-.6.3-1.1.6-1.7,1-1.9-1.6-3.8-3.5-5.4-5.4l-5-6.1c-7.3-5.6-12.3-13.4-15.1-23.2-.9-3.3-1.6-6.8-2-10.6-7,13.1-15,24.3-24.3,33.5-7.3,7.3-15,13.3-23.2,18.2-1.5-.9-3-1.8-4.6-2.7-1.7-.9-3.4-1.7-5.2-2.5,0,0-.1,0-.2-.1-5.1-2.2-10.9-4-17.4-5.2-5.4-1-11.2-1.7-17.5-2-6.3-.3-13-.3-20.2.1h-.4c-.9,0-1.9.1-2.9.2-6.7.5-13.6,1.5-20.4,2.9-6,1.3-12.1,2.8-18.1,4.4-1.8.5-3.5,1-5.3,1.5-4.8,1.5-9.5,3.1-14.1,4.8-2.8,1-5.5,2.1-8.2,3.2-7,2.9-13.8,6-20.1,9l-.7.3-1.5.7-1.1-1.2c0-.6-.2-1.2-.3-1.8-.2-1.1-.4-2.2-.7-3.3-.4-1.7-.8-3.3-1.3-4.9-.4-1.4-.9-2.8-1.4-4.1-.8-2.3-1.8-4.5-2.8-6.6l3.2-23.3c-2.9,4.8-6,9.3-9.4,13.5-.2-.2-.4-.5-.5-.7l-4.2-5c-2.7-4.8-5.9-9.1-9.6-12.8-1.5-1.5-3.1-2.8-4.8-4.1-.8-.6-1.7-1.3-2.6-1.9,0,0,0,0,0,0,4.8-6.1,9.1-12.9,12.8-20.5,5.9-12.1,9.9-26.2,12.2-42.3,2.2-16.1,2.1-30-.5-41.6-2.5-11.6-7.1-21.1-13.8-28.6-6.6-7.5-15.1-12.8-25.3-16.1-10.3-3.2-22.1-4.5-35.4-3.8s-25.7,3.4-37.1,7.8c-11.4,4.5-21.5,10.8-30.3,19.2-8.8,8.3-16.1,18.5-22,30.6-5.9,12.1-9.9,26.2-12.2,42.3-2.2,16.2-2.1,30,.3,41.6,0,.1,0,.3.1.4l-37.1,2.1-7.8,55.9c-2.9,2.5-5.8,4.7-8.9,6.8-11,7.4-23.1,12.7-36.3,16-13.2,3.3-26.5,5.4-39.9,6.1l-107.1,6-11.3-11.9,39-279.8,105.6-5.9c8.7-.5,17.4-.5,26.1,0s16.8,1.9,24.4,4.1c7.6,2.2,14.6,5.5,20.8,9.7,6.2,4.2,11.1,9.8,14.8,16.7l4.8,5.6c5,6,8.5,13.5,10.6,22.6s2.2,20.2.2,33.1c-1.3,8.8-3.6,17.1-6.9,24.9-3.3,7.8-7.5,15-12.6,21.5,2.5,3.1,4.6,6.6,6.5,10.4,2.8-13.1,6.7-24.9,11.9-35.5,7-14.5,15.8-26.8,26.4-36.7,10.5-9.9,22.6-17.6,36.3-23,13.7-5.4,28.5-8.5,44.5-9.4,19-1,35.3,1.2,49,6.9,13.7,5.6,24.2,14.9,31.3,27.9l3.7,4.1c4.9,6,8.8,13.1,11.6,21.2l17-121.9,101.4-5.6,9.7,13.6-5.9,41.4,5-.3c14-.8,26.3,1.6,36.8,7.2s18.8,13.9,25.1,24.9l3.2,3.8c7.6,9.2,12.9,20.8,15.9,34.8,2.2,10.1,2.9,21.3,2.1,33.6,2.4-3.2,5-6.3,7.8-9.2l10.9-80.2c6.1-3,12.6-5.9,19.6-8.8,6.9-2.9,14.2-5.5,21.6-7.8,7.5-2.3,15-4.2,22.6-5.8s15.1-2.6,22.5-3c21.8-1.2,38.9.9,51.5,6.5,12.6,5.5,21.6,13.3,27.1,23.3l4.8,5.6c6.2,7.5,10,16.3,11.5,26.3Zm-27.2,21.5c1.3-9.7,1.2-18.7-.3-27-1.4-8.3-4.9-15.3-10.2-21.2-5.4-5.8-12.9-10.2-22.6-13.2-9.7-2.9-22.1-4-37.3-3.1-13.4.7-26,2.9-37.9,6.5-11.9,3.6-21.9,7.4-30.1,11.4l-8.3,60.3c3.5-2.1,7.7-4.2,12.4-6.3,4.8-2,9.7-3.9,14.9-5.6,5.2-1.7,10.4-3.2,15.6-4.3,5.2-1.2,10.2-1.9,15-2.2,6.9-.4,11.8,0,14.6.9,2.8,1,4.2,2.5,4.3,4.4-14.1,1.7-27.1,4.4-39,8-11.9,3.7-22.4,8.5-31.5,14.4-9.1,5.9-16.5,13.2-22.2,21.8-5.7,8.6-9.4,18.5-10.9,29.8-1.3,9.5-1.1,17.7.5,24.5,1.6,6.9,4.5,12.5,8.8,16.9,4.2,4.4,9.6,7.6,16.2,9.5s14.1,2.7,22.7,2.2c6.9-.4,14.1-1.9,21.5-4.7,7.4-2.7,14.6-6.7,21.5-11.9l6.7,9.5,58.9-3.3,16.5-117.6Zm-201.3,34.4c1.9-14,1.9-26.6,0-37.8-1.9-11.2-5.3-20.6-10.4-28.3-5-7.6-11.6-13.4-19.6-17.3-8-3.9-17.1-5.6-27.3-5-7.3.4-13.7,1.5-19.3,3.3-5.6,1.8-10.9,4.1-15.9,6.9l9.1-64-66.8,3.7-33.9,242.2,48.7-2.7,8.2-12.5c4,4.4,9.1,7.9,15.1,10.4,6,2.5,13.1,3.5,21.4,3.1,9.6-.5,19.3-3.1,29.1-7.6,9.8-4.6,18.9-11.1,27.3-19.7,8.4-8.6,15.6-19.1,21.7-31.5,6.1-12.4,10.2-26.8,12.5-43.1Zm-410.4-58.6c1.9-13.8.9-24.9-3-33.2-3.9-8.3-9.6-14.6-17.2-18.9-7.6-4.3-16.4-7-26.5-8.1-10.1-1.1-20.3-1.4-30.7-.8l-88.3,4.9-33.9,242.2,90.8-5c11.2-.6,22.4-2.3,33.6-4.9s21.4-7,30.7-13c9.3-6,17.2-14,23.8-23.8,6.6-9.8,10.9-22.2,13.1-37.3,1.9-13.3.9-24.2-2.9-32.7s-9.7-15.2-17.6-20.1c7.6-6.3,13.9-13.5,18.8-21.6,4.9-8.1,8.1-17.3,9.5-27.5Z"/><path d="m5679.3,1129.1c2.8,13.7,2.8,29.7.2,48.2-2.7,19.2-7.5,36-14.4,50.3-6.9,14.4-15.6,26.5-26,36.3-10.4,9.8-22.5,17.4-36.1,22.7-13.6,5.3-28.3,8.4-44.2,9.3-16.5.9-31-.7-43.4-4.8-12.5-4.1-22.7-10.9-30.7-20.5l-4-5.1c-8.2-7.1-14.4-16.3-18.5-27.6l-8.5,60.4-83.1,4.6-3.7-4.6c-6.4,3.4-12.9,6-19.4,7.9-6.5,1.9-12.8,3-18.9,3.3-11.9.6-22.2-.5-31-3.5-8.8-3-15.8-7.7-21.1-14.2l-5-6.1c-7.3-5.6-12.3-13.4-15-23.2-.3-1.1-.6-2.2-.8-3.3-.8,1.5-1.7,3-2.6,4.4-7.8,12.3-17.2,22.1-28.3,29.5-11,7.4-23.1,12.7-36.3,16-13.2,3.3-26.5,5.3-39.9,6.1l-107.1,5.9-11.3-11.9,39-279.9,105.6-5.9c8.7-.5,17.4-.5,26.1,0,8.6.5,16.8,1.9,24.4,4.1,7.6,2.2,14.6,5.5,20.8,9.7,6.2,4.2,11.1,9.8,14.8,16.7l4.8,5.6c5,6,8.5,13.5,10.6,22.6,2.1,9.1,2.1,20.2.2,33.1-1.3,8.8-3.6,17.1-6.9,24.9-3.3,7.8-7.5,15-12.6,21.5,5.1,6.5,8.9,14.3,11.1,23.4.3,1.1.5,2.2.7,3.3,3.5-5.5,7.5-10.7,12.1-15.5l10.9-80.2c6.1-3,12.7-5.9,19.6-8.8,7-2.9,14.2-5.5,21.6-7.8,7.5-2.3,15-4.2,22.6-5.8,7.6-1.6,15.1-2.6,22.5-3,21.8-1.2,38.9.9,51.5,6.5,12.5,5.5,21.6,13.3,27.1,23.3l4.8,5.6c5.7,6.8,9.4,14.8,11.1,23.8.2-.3.3-.7.5-1,7.1-14.5,15.8-26.8,26.4-36.7,10.5-9.9,22.6-17.6,36.3-23,13.7-5.4,28.5-8.5,44.5-9.4,19-1,35.3,1.2,49,6.9,13.7,5.6,24.1,14.9,31.3,27.9l3.7,4.1c7.3,8.9,12.3,20.1,15,33.7Zm-26.8,36.3c2.2-16.1,2.1-30-.4-41.6-2.6-11.6-7.1-21.1-13.8-28.6-6.6-7.5-15.1-12.8-25.3-16.1-10.3-3.2-22.1-4.5-35.4-3.8-13.4.7-25.7,3.3-37.2,7.8-11.4,4.5-21.5,10.8-30.3,19.2-8.8,8.3-16.1,18.5-22,30.6-5.9,12.1-9.9,26.2-12.2,42.3-2.2,16.1-2.1,30,.3,41.6,2.5,11.6,7,21.1,13.6,28.5,6.6,7.4,15.1,12.7,25.5,15.9,10.4,3.2,22.2,4.5,35.6,3.8,13.4-.7,25.7-3.3,37.2-7.8,11.4-4.5,21.5-10.8,30.3-19,8.8-8.2,16.1-18.4,22-30.5,5.9-12.1,9.9-26.2,12.2-42.3Zm-206.8-14.7c1.3-9.7,1.2-18.7-.3-26.9-1.5-8.3-4.9-15.4-10.2-21.2-5.4-5.8-12.9-10.2-22.6-13.2-9.7-2.9-22.1-4-37.3-3.1-13.3.8-26,2.9-37.8,6.5-11.9,3.6-21.9,7.4-30.1,11.4l-8.3,60.3c3.5-2.1,7.7-4.2,12.4-6.3,4.8-2,9.8-3.9,14.9-5.6,5.2-1.7,10.4-3.2,15.6-4.3,5.2-1.2,10.2-1.9,15-2.2,6.9-.4,11.8,0,14.6.9,2.8,1,4.2,2.5,4.3,4.4-14.1,1.7-27.1,4.4-39,8-11.9,3.7-22.4,8.5-31.5,14.4-9.1,5.9-16.5,13.2-22.2,21.8-5.7,8.6-9.3,18.6-10.9,29.9-1.3,9.5-1.1,17.7.5,24.5,1.6,6.9,4.5,12.5,8.8,16.9,4.2,4.4,9.6,7.5,16.2,9.5,6.6,1.9,14.1,2.7,22.7,2.2,6.9-.4,14.1-1.9,21.5-4.7,7.4-2.7,14.5-6.7,21.5-11.9l6.7,9.5,58.9-3.3,16.5-117.6Zm-196.4-47.3c1.9-13.8.9-24.9-3-33.2s-9.6-14.6-17.2-18.9c-7.6-4.3-16.4-7-26.5-8.1-10.1-1.1-20.3-1.4-30.7-.8l-88.3,4.9-33.9,242.2,90.8-5c11.2-.6,22.4-2.3,33.6-4.9,11.2-2.7,21.4-7,30.7-13.1,9.2-6,17.2-13.9,23.7-23.7,6.6-9.8,10.9-22.2,13.1-37.3,1.9-13.3.9-24.2-2.9-32.7-3.9-8.5-9.7-15.2-17.6-20.1,7.6-6.3,13.8-13.5,18.8-21.6,4.9-8.1,8.1-17.3,9.5-27.5Z"/><path d="m5605.9,969.2l-1.3,8.6c0,1.2-.6,2.8-1.5,4.6-.9,2.5-2.8,4.7-6,6.6-3.1,1.9-6.2,2.9-9.4,3-3.3.2-5.9-.4-7.8-1.8-1.9-1.4-2.6-3.7-2.1-7,.7-5,3.8-8.5,9.1-10.5,5.4-2,11.6-3.2,18.9-3.6Z"/><path d="m5568.8,1137.2c13.5-.8,18.8,9.9,15.9,32-1.8,12.5-4.9,21.3-9.2,26.1-4.4,4.9-9.7,7.5-15.9,7.8-3.1.2-5.9-.2-8.3-1.1-2.4-.9-4.3-2.6-5.7-5-1.5-2.4-2.4-5.7-2.8-9.8-.4-4.2-.1-9.4.9-15.7,2.9-22.1,11.3-33.5,25.1-34.2Z"/><path d="m5411.8,938.3c2.5,5.7,3.1,13,2,21.8-1.4,10.1-4.3,17.9-8.7,23.6-4.4,5.7-9.8,8.7-16.2,9.1-3.8.2-6.9-.6-9.3-2.3-2.4-1.7-4.4-4-5.8-6.8l5.9-42c2.9-3.7,6-6.5,9.2-8.4,3.2-1.9,6.1-2.9,8.8-3,7.1-.4,11.9,2.3,14.3,8Z"/><path d="m5369.3,1199.9l-1.2,8.6c-.1,1.3-.6,2.8-1.5,4.6-.9,2.5-2.8,4.7-6,6.6-3.1,1.9-6.2,2.9-9.4,3.1-3.3.2-5.9-.4-7.8-1.8-1.9-1.4-2.6-3.7-2.1-6.9.7-5,3.7-8.5,9.1-10.5s11.7-3.2,18.9-3.6Z"/><path d="m5192.1,940.6c13.5-.8,18.8,9.9,15.9,32-1.8,12.6-4.9,21.3-9.2,26.1s-9.7,7.5-15.9,7.8c-3.1.2-5.9-.2-8.2-1.1-2.4-.9-4.3-2.6-5.7-5-1.5-2.4-2.4-5.7-2.8-9.9-.4-4.2-.1-9.4.9-15.7,2.9-22.1,11.3-33.5,25.1-34.2Z"/><path d="m5179.3,1109.5c2.5,1.5,3.4,4.4,2.8,8.7-.7,5.2-2.6,8.6-5.8,10.1-3.1,1.5-7.3,2.4-12.4,2.7l-26.9,1.5,3.2-23.1,27-1.5c5.6-.3,9.6.3,12.1,1.7Z"/><path d="m5173.5,1195.5c3.1,1.2,4.3,4.5,3.6,9.7-1,6.1-3.4,9.9-7.2,11.5-3.8,1.6-8.2,2.5-13.4,2.8l-31.9,1.8,3.6-25.3,31.9-1.8c5.8-.3,10.2.1,13.4,1.4Z"/><path d="m4976.6,1269.3l38.2,50-88.8,4.9-4.9-5.8c-6.1,3.1-12.6,5.6-19.4,7.3s-13,2.8-18.6,3.1c-10.5.6-19.5-.7-27.1-3.8-7.5-3.1-13.7-7.6-18.5-13.3l-3-3.6c-6.3-5.7-10.7-12.7-13.4-20.9-2.6-8.2-3.3-17.2-2.1-27,1.3-10.5,4.1-19.9,8.4-28.2s9.9-15.7,16.8-22.4c-1.7-6.8-2.1-14.3-1.2-22.4.8-7.2,2.9-14.6,6.3-22.1,3.4-7.5,8.1-14.3,13.9-20.5,5.8-6.2,12.8-11.3,20.8-15.4,8.1-4.1,17.3-6.4,27.5-7,10.3-.6,19.2,1,26.9,4.6s13.5,9.2,17.5,16.5l3.2,3.6c3.7,4.6,6.3,10,7.9,16.4,1.6,6.3,2,13.5,1.2,21.5-.7,3.8-1.6,7.5-2.6,10.9l32.6-1.8,6.7,9.6c-4.8,14.8-9.6,27.7-14.5,38.7-4.9,11-9.5,20-14,27Zm5.2,29.8l-27.6-36.3c5.1-6.7,10-14.6,14.7-23.7,4.6-9.1,8.9-19.4,12.7-30.9l-40.1,2.2c-1.2,3.2-2.9,6.7-5,10.4s-4.1,7.1-6.2,10.3l-8.9-12.2c7.8-5.5,14.1-11.7,19-18.6,4.9-7,7.8-14.8,8.9-23.5.8-6.7.4-12.7-1.3-18-1.6-5.3-4.2-9.7-7.7-13.2-3.5-3.5-7.8-6.1-13-7.9-5.2-1.7-11-2.4-17.4-2.1-8.1.4-15.3,2.3-21.7,5.5-6.4,3.2-12,7.2-16.5,12s-8.2,10.1-11,15.8c-2.7,5.8-4.5,11.5-5.2,17.2-.4,4.8-.3,9.4.4,13.7.7,4.3,1.9,8.4,3.5,12.4-7.6,5.7-13.9,12.5-18.7,20.2-4.8,7.8-7.9,16.8-9.2,27.1-.8,6.7-.4,13.1,1.1,19.1,1.6,6,4.3,11.2,8.2,15.6,3.9,4.4,9,7.8,15.1,10.1s13.4,3.3,21.7,2.9c6.2-.4,12.9-1.6,20.2-3.8s14.1-5.4,20.3-9.8l7,8.7,56.7-3.1Z"/><path d="m5000.5,901.9c2.5,1.5,3.4,4.4,2.8,8.7-.7,5.2-2.6,8.5-5.8,10.1s-7.3,2.4-12.4,2.7l-27,1.5,3.2-23.1,27-1.5c5.6-.3,9.7.3,12.1,1.7Z"/><path d="m4994.7,987.9c3.1,1.2,4.3,4.5,3.6,9.7-1,6.1-3.4,9.9-7.2,11.5-3.8,1.5-8.3,2.5-13.4,2.8l-31.9,1.8,3.6-25.3,31.9-1.8c5.8-.3,10.2.1,13.4,1.4Z"/><path d="m4909.1,1173.9c.8,1.5,1.1,3.2.8,5.2-.3,2.3-1.3,4.5-2.9,6.6-1.6,2.1-3.9,4.5-6.9,7.2-2.6-4.1-3.6-8.4-3.2-12.7.2-2.2,1-4.1,2.3-5.7,1.3-1.6,3-2.5,5.1-2.6,2.3-.1,3.9.6,4.7,2Z"/><path d="m4879.5,1241.5l17.6,23.4c-2.8.8-5.5,1.2-8.3,1.1-2.8,0-5.2-.6-7.4-1.7-2.2-1.1-3.8-2.7-5-4.8-1.2-2.1-1.6-4.9-1.2-8.4.1-1.6.7-3.3,1.6-5,.9-1.7,1.8-3.2,2.6-4.7Z"/><path d="m7473.8,2718.1c-2.5-1.5-6.5-2-12.1-1.7l-27,1.5-3.2,23.1,27-1.5c5.1-.3,9.2-1.2,12.4-2.7,3.1-1.5,5.1-4.9,5.8-10.1.6-4.3-.4-7.2-2.8-8.7Z" style="fill:#c1633a;"/><path d="m7467.9,2804.2c-3.1-1.2-7.6-1.7-13.4-1.4l-31.9,1.8-3.6,25.3,31.9-1.8c5.1-.3,9.6-1.2,13.4-2.7,3.8-1.5,6.2-5.4,7.2-11.5.7-5.2-.5-8.4-3.6-9.7Z" style="fill:#c1633a;"/><path d="m7665.4,2756.9c-13.9.8-22.2,12.2-25.1,34.2-1,6.3-1.3,11.5-.9,15.7.4,4.2,1.3,7.4,2.8,9.9,1.5,2.4,3.4,4.1,5.7,5,2.4.9,5.1,1.3,8.3,1.1,6.3-.3,11.6-3,15.9-7.8,4.4-4.9,7.4-13.6,9.2-26.1,2.9-22.1-2.4-32.7-15.9-32Z" style="fill:#c1633a;"/><path d="m7870.7,2746.5c-2.6.1-5.6,1.2-8.8,3-3.2,1.9-6.3,4.7-9.2,8.4l-5.9,42c1.5,2.8,3.4,5,5.8,6.8,2.4,1.7,5.5,2.5,9.3,2.3,6.4-.4,11.8-3.4,16.2-9,4.4-5.7,7.3-13.5,8.7-23.6,1.2-8.8.5-16-2-21.8-2.5-5.7-7.3-8.4-14.3-8Z" style="fill:#c1633a;"/><path d="m8051.1,2799.5c-.5,3.2.2,5.6,2.1,7,1.9,1.4,4.5,2,7.8,1.8,3.1-.2,6.3-1.2,9.4-3.1,3.1-1.9,5.1-4.1,6-6.6.9-1.8,1.4-3.4,1.5-4.6l1.3-8.6c-7.3.4-13.6,1.6-18.9,3.6-5.3,2-8.4,5.5-9.1,10.5Z" style="fill:#c1633a;"/><path d="m8182.7,2714.8c-1.5-10.1-5.3-18.8-11.5-26.3l-4.8-5.6c-5.5-10-14.6-17.8-27.1-23.3-12.6-5.5-29.7-7.7-51.5-6.5-7.4.4-14.9,1.4-22.5,3-7.6,1.6-15.1,3.5-22.6,5.8-7.5,2.3-14.7,4.9-21.7,7.7-7,2.9-13.5,5.8-19.6,8.8l-10.9,80.2c-2.8,2.9-5.4,6-7.8,9.2.8-12.3,0-23.5-2.1-33.6-3-14-8.3-25.6-16-34.8l-3.2-3.8c-6.2-11-14.6-19.3-25.1-24.9-10.5-5.6-22.7-7.9-36.7-7.2l-4.9.3,5.9-41.4-9.7-13.6-101.4,5.6-17,121.9c-2.8-8.2-6.7-15.3-11.6-21.2l-3.7-4.1c-7.2-13-17.6-22.2-31.3-27.9-13.7-5.6-30.1-7.9-49-6.9-16,.9-30.8,4-44.5,9.4-13.7,5.4-25.8,13-36.3,23-10.5,9.9-19.3,22.2-26.4,36.7-5.1,10.6-9.1,22.5-11.9,35.6-1.8-3.8-4-7.2-6.5-10.4,5.1-6.5,9.3-13.7,12.6-21.5,3.3-7.8,5.6-16.2,6.9-24.9,1.9-12.9,1.9-24-.2-33.1-2.1-9.1-5.6-16.7-10.6-22.6l-4.8-5.6c-3.7-6.9-8.6-12.5-14.8-16.7-6.2-4.2-13.1-7.4-20.8-9.7-7.7-2.2-15.8-3.6-24.4-4.1-8.6-.5-17.3-.5-26.1,0l-105.6,5.9-39,279.9,11.3,11.9,107.1-6c13.4-.7,26.6-2.8,39.9-6.1,13.2-3.3,25.3-8.7,36.3-16,3.1-2.1,6.1-4.4,8.9-6.8l7.8-55.9,37.1-2.1c0-.1,0-.3-.1-.4-2.5-11.6-2.6-25.5-.3-41.6,2.2-16.1,6.3-30.3,12.2-42.3,5.9-12.1,13.2-22.3,22-30.6,8.8-8.3,18.9-14.7,30.3-19.2,11.4-4.5,23.8-7.1,37.2-7.8,13.4-.7,25.2.5,35.4,3.8,10.3,3.3,18.7,8.6,25.3,16.1,6.6,7.5,11.2,17,13.7,28.6,2.5,11.6,2.7,25.5.5,41.6-2.2,16.1-6.3,30.3-12.2,42.3-3.7,7.6-8,14.4-12.8,20.5,0,0,0,0,0,0,.9.6,1.7,1.2,2.6,1.9,1.7,1.3,3.3,2.7,4.8,4.1,3.8,3.7,7,7.9,9.6,12.7l4.2,5c.2.2.4.5.5.7,3.4-4.2,6.5-8.7,9.4-13.5l-3.2,23.3c1.1,2.1,2,4.3,2.8,6.6.5,1.3,1,2.7,1.4,4.1.5,1.6.9,3.2,1.3,4.9.2,1.1.5,2.2.7,3.3.1.6.2,1.2.3,1.8l1.1,1.2,1.5-.7.7-.3c6.3-3.1,13-6.1,20.1-9,2.7-1.1,5.4-2.2,8.2-3.2,4.6-1.7,9.4-3.3,14.1-4.8,1.7-.5,3.5-1,5.3-1.5,6-1.7,12-3.2,18.1-4.4,6.9-1.4,13.7-2.4,20.4-2.9,1,0,1.9-.1,2.9-.2h.4c7.2-.4,13.9-.5,20.2-.1,6.3.3,12.1,1,17.5,2,6.5,1.2,12.3,3,17.4,5.2,0,0,.1,0,.2,0,1.8.8,3.5,1.6,5.2,2.5,1.6.8,3.1,1.7,4.6,2.7,8.2-4.9,15.9-10.9,23.2-18.2,9.2-9.2,17.3-20.4,24.3-33.5.4,3.8,1,7.3,2,10.6,2.8,9.8,7.8,17.5,15.1,23.2l5.1,6.1c1.6,2,3.4,3.8,5.4,5.4.6-.3,1.1-.6,1.7-1,1.7-.9,3.4-1.8,5.2-2.6,2.6-1.3,5.3-2.4,8-3.5,3.6-1.4,7.2-2.7,11-3.8,11.2-3.4,23.2-5.4,35.7-6.1h.3c2.5-.2,5-.2,7.4-.3s4.8,0,7.2,0c2.4,0,4.7.2,6.9.4,8,.7,15.4,2.1,22.4,4.2,3,.9,5.8,1.9,8.6,3,4.7,1.9,9.1,4.3,13.1,7,2.5,1.7,4.9,3.6,7.2,5.6l37.1-2.1,19-135.6c1.6-12.2,1.7-23.3.3-33.4Zm-638.9-2.7c-1.4,10.2-4.6,19.4-9.5,27.5-4.9,8.1-11.2,15.3-18.8,21.6,7.9,4.9,13.8,11.6,17.6,20.1,3.9,8.5,4.8,19.4,2.9,32.7-2.1,15.1-6.5,27.5-13.1,37.3-6.6,9.8-14.5,17.7-23.7,23.7-9.3,6-19.5,10.4-30.7,13.1-11.2,2.7-22.4,4.3-33.6,4.9l-90.8,5,33.9-242.2,88.3-4.9c10.4-.6,20.6-.3,30.7.8,10.1,1.1,18.9,3.8,26.5,8.1,7.6,4.3,13.3,10.6,17.2,18.9,3.9,8.3,4.8,19.4,3,33.2Zm410.4,58.6c-2.2,16.3-6.4,30.7-12.5,43.1-6.1,12.4-13.3,22.9-21.7,31.5-8.4,8.6-17.5,15.1-27.3,19.7-9.8,4.6-19.5,7.1-29.1,7.6-8.2.5-15.4-.6-21.4-3.1-6-2.5-11-6-15.1-10.4l-8.2,12.5-48.7,2.7,33.9-242.2,66.8-3.7-9.1,64.1c5-2.8,10.3-5.1,15.9-6.9,5.6-1.8,12-2.9,19.3-3.3,10.2-.6,19.3,1.1,27.3,5,8,3.9,14.5,9.7,19.6,17.3,5.1,7.6,8.5,17.1,10.4,28.3,1.9,11.2,1.9,23.8,0,37.8Zm201.3-34.4l-16.5,117.6-58.9,3.3-6.7-9.5c-7,5.2-14.2,9.2-21.5,11.9-7.4,2.7-14.5,4.3-21.5,4.7-8.6.5-16.1-.3-22.7-2.2-6.6-2-11.9-5.1-16.2-9.5-4.2-4.4-7.1-10-8.8-16.9-1.6-6.9-1.8-15-.5-24.5,1.5-11.3,5.1-21.2,10.9-29.8,5.7-8.6,13.1-15.9,22.2-21.8,9.1-5.9,19.6-10.7,31.5-14.4,11.9-3.7,24.9-6.4,39-8-.1-2-1.6-3.4-4.3-4.4-2.8-1-7.6-1.3-14.6-.9-4.8.3-9.8,1-15,2.2-5.2,1.2-10.4,2.6-15.6,4.3-5.2,1.7-10.2,3.6-14.9,5.6-4.8,2-8.9,4.1-12.4,6.3l8.3-60.3c8.2-4,18.3-7.8,30.1-11.4,11.9-3.6,24.5-5.8,37.8-6.5,15.2-.8,27.6.2,37.3,3.1,9.7,2.9,17.2,7.3,22.6,13.2,5.4,5.8,8.8,12.9,10.2,21.2,1.5,8.3,1.5,17.3.3,27Z" style="fill:#c1633a;"/><path d="m8152.5,2945.3c2.7,13.6,2.8,29.7.2,48.2-2.7,19.2-7.6,36-14.4,50.3-6.9,14.4-15.6,26.4-26,36.3-10.5,9.8-22.5,17.4-36.1,22.7-13.6,5.3-28.3,8.4-44.1,9.3-16.5.9-31-.7-43.4-4.8-12.5-4.1-22.7-10.9-30.7-20.5l-4-5.1c-8.2-7.1-14.4-16.3-18.5-27.6l-8.5,60.4-83.1,4.6-3.7-4.6c-6.4,3.4-12.9,6-19.4,7.9-6.5,1.9-12.8,3-18.9,3.3-11.9.7-22.2-.5-31-3.5-8.8-3-15.8-7.7-21.1-14.2l-5.1-6.1c-7.3-5.6-12.3-13.4-15.1-23.2-.3-1.1-.6-2.1-.8-3.3-.8,1.5-1.7,3-2.6,4.4-7.8,12.3-17.3,22.1-28.3,29.5-11,7.4-23.1,12.7-36.3,16-13.2,3.3-26.5,5.3-39.9,6.1l-107.1,6-11.3-11.9,39-279.9,105.6-5.9c8.7-.5,17.4-.5,26.1,0s16.8,1.9,24.4,4.1c7.6,2.2,14.6,5.5,20.8,9.7,6.2,4.2,11.1,9.7,14.8,16.7l4.8,5.6c5,6,8.5,13.5,10.6,22.6,2.1,9.1,2.2,20.2.2,33.1-1.3,8.8-3.6,17.1-6.9,25s-7.5,15-12.6,21.5c5.2,6.5,8.9,14.3,11.1,23.4.3,1.1.5,2.2.7,3.3,3.5-5.5,7.5-10.7,12.1-15.5l10.9-80.2c6.1-3,12.7-6,19.6-8.8s14.2-5.5,21.7-7.8c7.5-2.3,15-4.2,22.6-5.8,7.6-1.6,15.1-2.6,22.5-3,21.8-1.2,38.9,1,51.5,6.5,12.5,5.5,21.6,13.3,27.1,23.3l4.8,5.6c5.7,6.8,9.4,14.8,11.1,23.7.2-.3.3-.7.5-1,7.1-14.5,15.8-26.8,26.4-36.7,10.5-9.9,22.6-17.6,36.3-23,13.7-5.4,28.5-8.5,44.5-9.4,19-1.1,35.3,1.2,49,6.9,13.7,5.6,24.2,14.9,31.3,27.9l3.7,4.1c7.3,8.9,12.3,20.1,15,33.7Zm-26.8,36.3c2.2-16.1,2.1-30-.5-41.6-2.5-11.6-7.1-21.1-13.7-28.6-6.6-7.5-15.1-12.8-25.3-16.1-10.3-3.3-22.1-4.5-35.4-3.8-13.4.7-25.7,3.3-37.2,7.8-11.4,4.5-21.5,10.9-30.3,19.2-8.8,8.3-16.1,18.5-22,30.6-5.9,12.1-9.9,26.2-12.2,42.3-2.2,16.1-2.1,30,.3,41.6,2.5,11.6,7,21.1,13.6,28.5,6.6,7.4,15.1,12.7,25.5,15.9,10.3,3.2,22.2,4.5,35.6,3.8,13.4-.7,25.7-3.3,37.2-7.8,11.4-4.5,21.5-10.8,30.3-19,8.8-8.2,16.1-18.4,22-30.5,5.9-12.1,9.9-26.2,12.2-42.3Zm-206.8-14.7c1.3-9.7,1.2-18.7-.3-27-1.5-8.3-4.9-15.4-10.2-21.2-5.4-5.8-12.9-10.2-22.6-13.2-9.7-2.9-22.1-4-37.3-3.1-13.4.7-26,2.9-37.8,6.5-11.9,3.6-21.9,7.4-30.1,11.4l-8.3,60.3c3.5-2.1,7.7-4.3,12.4-6.3,4.8-2,9.8-3.9,15-5.6,5.2-1.7,10.4-3.2,15.6-4.3,5.2-1.2,10.2-1.9,15-2.2,6.9-.4,11.8,0,14.6.9,2.8,1,4.2,2.5,4.3,4.4-14.1,1.7-27.1,4.4-39,8-11.9,3.7-22.4,8.5-31.5,14.4-9.1,5.9-16.5,13.2-22.2,21.8-5.7,8.6-9.3,18.5-10.9,29.8-1.3,9.5-1.1,17.7.5,24.5,1.6,6.9,4.5,12.5,8.8,16.9,4.2,4.4,9.6,7.6,16.2,9.5,6.6,2,14.1,2.7,22.7,2.2,6.9-.4,14.1-1.9,21.5-4.7,7.4-2.7,14.5-6.7,21.5-11.9l6.7,9.5,58.9-3.3,16.5-117.6Zm-196.4-47.3c1.9-13.8.9-24.9-3-33.2-3.9-8.3-9.6-14.6-17.2-18.9-7.6-4.3-16.4-7-26.5-8.1-10.1-1.1-20.3-1.4-30.7-.8l-88.3,4.9-33.9,242.2,90.8-5c11.2-.6,22.4-2.3,33.6-4.9,11.2-2.7,21.4-7,30.7-13.1,9.3-6,17.2-14,23.7-23.7,6.6-9.8,10.9-22.2,13.1-37.3,1.9-13.3.9-24.2-2.9-32.7-3.9-8.5-9.7-15.2-17.6-20.1,7.6-6.3,13.8-13.5,18.8-21.6,4.9-8.1,8.1-17.3,9.5-27.5Z" style="fill:#c1633a;"/><path d="m8042,2953.5c13.5-.8,18.8,9.9,15.9,32-1.8,12.6-4.9,21.3-9.2,26.1-4.4,4.9-9.7,7.5-15.9,7.8-3.1.2-5.9-.2-8.3-1.1-2.4-.9-4.3-2.6-5.7-5-1.5-2.4-2.4-5.7-2.8-9.9-.4-4.2-.1-9.4.9-15.7,2.9-22.1,11.3-33.5,25.1-34.2Z" style="fill:#c1633a;"/><path d="m7842.6,3016.1l-1.3,8.6c0,1.3-.6,2.8-1.5,4.6-.8,2.5-2.8,4.7-6,6.6-3.1,1.9-6.2,2.9-9.4,3.1-3.3.2-5.9-.4-7.8-1.8-1.9-1.4-2.6-3.7-2.1-7,.7-5,3.7-8.5,9.1-10.5,5.3-2,11.6-3.2,18.9-3.6Z" style="fill:#c1633a;"/><path d="m7652.6,2925.7c2.5,1.5,3.4,4.3,2.8,8.6-.7,5.2-2.6,8.6-5.8,10.1-3.1,1.5-7.3,2.4-12.4,2.7l-27,1.5,3.2-23.1,27-1.5c5.6-.3,9.6.3,12.1,1.7Z" style="fill:#c1633a;"/><path d="m7646.7,3011.8c3.1,1.2,4.3,4.5,3.6,9.7-1,6.1-3.4,9.9-7.2,11.5-3.8,1.5-8.3,2.5-13.4,2.7l-31.9,1.8,3.6-25.3,31.9-1.8c5.8-.3,10.2.1,13.4,1.4Z" style="fill:#c1633a;"/><path d="m7449.8,3085.6l38.3,50-88.8,4.9-4.9-5.8c-6.1,3.1-12.6,5.6-19.4,7.3-6.8,1.8-13,2.8-18.6,3.1-10.5.6-19.5-.7-27.1-3.8-7.5-3.1-13.7-7.6-18.5-13.3l-3-3.6c-6.3-5.7-10.7-12.7-13.4-20.9-2.6-8.2-3.3-17.2-2.1-27,1.3-10.5,4.1-19.9,8.4-28.2,4.3-8.2,10-15.7,16.8-22.4-1.7-6.8-2.1-14.3-1.2-22.4.8-7.2,2.9-14.6,6.3-22.1,3.4-7.5,8.1-14.3,13.9-20.5,5.8-6.2,12.7-11.3,20.8-15.4,8.1-4.1,17.3-6.4,27.5-7,10.3-.6,19.2,1,26.9,4.6,7.6,3.7,13.5,9.2,17.5,16.5l3.2,3.6c3.7,4.6,6.3,10,7.9,16.4,1.6,6.3,2,13.5,1.2,21.5-.7,3.8-1.6,7.5-2.6,10.9l32.6-1.8,6.7,9.6c-4.8,14.8-9.6,27.7-14.5,38.7-4.9,11-9.5,20-14,27Zm4.8-61.1l-40.1,2.2c-1.2,3.2-2.9,6.7-5,10.4-2.1,3.7-4.1,7.1-6.2,10.3l-8.9-12.2c7.8-5.5,14.1-11.7,19-18.6,4.9-6.9,7.8-14.8,8.9-23.5.8-6.7.4-12.7-1.3-18-1.6-5.3-4.2-9.7-7.7-13.2-3.5-3.5-7.8-6.1-13-7.9-5.2-1.7-11-2.4-17.4-2.1-8.1.5-15.3,2.3-21.7,5.5s-12,7.2-16.5,12c-4.6,4.8-8.3,10.1-11,15.8-2.7,5.8-4.5,11.5-5.2,17.2-.4,4.8-.3,9.4.4,13.7.7,4.3,1.9,8.4,3.5,12.4-7.6,5.7-13.9,12.5-18.7,20.2-4.8,7.8-7.9,16.8-9.2,27.1-.8,6.7-.4,13.1,1.2,19.1,1.6,6,4.3,11.2,8.2,15.6,3.9,4.4,9,7.7,15.1,10.1,6.2,2.4,13.4,3.3,21.7,2.9,6.2-.3,12.9-1.6,20.2-3.8,7.3-2.2,14.1-5.4,20.3-9.8l7,8.7,56.7-3.2-27.7-36.3c5.1-6.7,10-14.6,14.7-23.7,4.6-9.1,8.9-19.4,12.7-30.9Z" style="fill:#c1633a;"/><path d="m7382.4,2990.1c.8,1.5,1.1,3.2.8,5.2-.3,2.3-1.3,4.5-2.9,6.6-1.6,2.1-3.9,4.5-6.9,7.2-2.6-4.1-3.6-8.4-3.2-12.7.2-2.2,1-4.1,2.3-5.7,1.3-1.6,3-2.5,5.1-2.6,2.3-.1,3.9.5,4.7,2Z" style="fill:#c1633a;"/><path d="m7352.7,3057.7l17.6,23.4c-2.8.8-5.5,1.2-8.3,1.1-2.8,0-5.2-.6-7.4-1.7-2.2-1.1-3.8-2.7-5-4.8-1.2-2.1-1.6-4.9-1.2-8.3.1-1.6.7-3.3,1.6-5,.9-1.7,1.8-3.2,2.6-4.7Z" style="fill:#c1633a;"/><rect x="6354.6" width="2741.9" height="1879.7" style="fill:#ffffe0;"/><path d="m7421.1,779.2c-2.5-1.5-6.5-2-12.1-1.7l-27,1.5-3.2,23.1,27-1.5c5.1-.3,9.2-1.2,12.4-2.7,3.1-1.5,5.1-4.9,5.8-10.1.6-4.3-.4-7.2-2.8-8.7Z" style="fill:#cc527e;"/><path d="m7415.2,865.3c-3.1-1.2-7.6-1.7-13.4-1.4l-31.9,1.8-3.6,25.3,31.9-1.8c5.1-.3,9.6-1.2,13.4-2.7,3.8-1.5,6.2-5.4,7.2-11.5.7-5.2-.5-8.4-3.6-9.7Z" style="fill:#cc527e;"/><path d="m7612.7,818c-13.9.8-22.2,12.2-25.1,34.2-1,6.3-1.3,11.5-.9,15.7.4,4.2,1.3,7.4,2.8,9.9,1.5,2.4,3.4,4.1,5.7,5,2.4.9,5.1,1.3,8.3,1.1,6.3-.3,11.6-3,15.9-7.8,4.4-4.9,7.4-13.6,9.2-26.1,2.9-22.1-2.4-32.7-15.9-32Z" style="fill:#cc527e;"/><path d="m7818.1,807.6c-2.6.1-5.6,1.2-8.8,3-3.2,1.9-6.3,4.7-9.2,8.4l-5.9,42c1.5,2.8,3.4,5,5.8,6.8,2.4,1.7,5.5,2.5,9.3,2.3,6.4-.4,11.8-3.4,16.2-9,4.4-5.7,7.3-13.5,8.7-23.6,1.2-8.8.5-16-2-21.8-2.5-5.7-7.3-8.4-14.3-8Z" style="fill:#cc527e;"/><path d="m7998.4,860.6c-.5,3.2.2,5.6,2.1,7,1.9,1.4,4.5,2,7.8,1.8,3.1-.2,6.3-1.2,9.4-3.1,3.1-1.9,5.1-4.1,6-6.6.9-1.8,1.4-3.4,1.5-4.6l1.3-8.6c-7.3.4-13.6,1.6-18.9,3.6-5.3,2-8.4,5.5-9.1,10.5Z" style="fill:#cc527e;"/><path d="m8130.1,775.9c-1.5-10.1-5.3-18.8-11.5-26.3l-4.8-5.6c-5.5-10-14.6-17.8-27.1-23.3-12.6-5.5-29.7-7.7-51.5-6.5-7.4.4-14.9,1.4-22.5,3-7.6,1.6-15.1,3.5-22.6,5.8-7.5,2.3-14.7,4.9-21.7,7.7-7,2.9-13.5,5.8-19.6,8.8l-10.9,80.2c-2.8,2.9-5.4,6-7.8,9.2.8-12.3,0-23.5-2.1-33.6-3-14-8.3-25.6-16-34.8l-3.2-3.8c-6.2-11-14.6-19.3-25.1-24.9-10.5-5.6-22.7-7.9-36.7-7.2l-4.9.3,5.9-41.4-9.7-13.6-101.4,5.6-17,121.9c-2.8-8.2-6.7-15.3-11.6-21.2l-3.7-4.1c-7.2-13-17.6-22.2-31.3-27.9-13.7-5.6-30.1-7.9-49-6.9-16,.9-30.8,4-44.5,9.4-13.7,5.4-25.8,13-36.3,23-10.5,9.9-19.3,22.2-26.4,36.7-5.1,10.6-9.1,22.5-11.9,35.6-1.8-3.8-4-7.2-6.5-10.4,5.1-6.5,9.3-13.7,12.6-21.5,3.3-7.8,5.6-16.2,6.9-24.9,1.9-12.9,1.9-24-.2-33.1-2.1-9.1-5.6-16.7-10.6-22.6l-4.8-5.6c-3.7-6.9-8.6-12.5-14.8-16.7-6.2-4.2-13.1-7.4-20.8-9.7-7.7-2.2-15.8-3.6-24.4-4.1-8.6-.5-17.3-.5-26.1,0l-105.6,5.9-39,279.9,11.3,11.9,107.1-6c13.4-.7,26.6-2.8,39.9-6.1,13.2-3.3,25.3-8.7,36.3-16,3.1-2.1,6.1-4.4,8.9-6.8l7.8-55.9,37.1-2.1c0-.1,0-.3-.1-.4-2.5-11.6-2.6-25.5-.3-41.6,2.2-16.1,6.3-30.3,12.2-42.3,5.9-12.1,13.2-22.3,22-30.6,8.8-8.3,18.9-14.7,30.3-19.2,11.4-4.5,23.8-7.1,37.2-7.8,13.4-.7,25.2.5,35.4,3.8,10.3,3.3,18.7,8.6,25.3,16.1,6.6,7.5,11.2,17,13.7,28.6,2.5,11.6,2.7,25.5.5,41.6-2.2,16.1-6.3,30.3-12.2,42.3-3.7,7.6-8,14.4-12.8,20.5,0,0,0,0,0,0,.9.6,1.7,1.2,2.6,1.9,1.7,1.3,3.3,2.7,4.8,4.1,3.8,3.7,7,7.9,9.6,12.7l4.2,5c.2.2.4.5.5.7,3.4-4.2,6.5-8.7,9.4-13.5l-3.2,23.3c1.1,2.1,2,4.3,2.8,6.6.5,1.3,1,2.7,1.4,4.1.5,1.6.9,3.2,1.3,4.9.2,1.1.5,2.2.7,3.3.1.6.2,1.2.3,1.8l1.1,1.2,1.5-.7.7-.3c6.3-3.1,13-6.1,20.1-9,2.7-1.1,5.4-2.2,8.2-3.2,4.6-1.7,9.4-3.3,14.1-4.8,1.7-.5,3.5-1,5.3-1.5,6-1.7,12-3.2,18.1-4.4,6.9-1.4,13.7-2.4,20.4-2.9,1,0,1.9-.1,2.9-.2h.4c7.2-.4,13.9-.5,20.2-.1,6.3.3,12.1,1,17.5,2,6.5,1.2,12.3,3,17.4,5.2,0,0,.1,0,.2,0,1.8.8,3.5,1.6,5.2,2.5,1.6.8,3.1,1.7,4.6,2.7,8.2-4.9,15.9-10.9,23.2-18.2,9.2-9.2,17.3-20.4,24.3-33.5.4,3.8,1,7.3,2,10.6,2.8,9.8,7.8,17.5,15.1,23.2l5.1,6.1c1.6,2,3.4,3.8,5.4,5.4.6-.3,1.1-.6,1.7-1,1.7-.9,3.4-1.8,5.2-2.6,2.6-1.3,5.3-2.4,8-3.5,3.6-1.4,7.2-2.7,11-3.8,11.2-3.4,23.2-5.4,35.7-6.1h.3c2.5-.2,5-.2,7.4-.3s4.8,0,7.2,0c2.4,0,4.7.2,6.9.4,8,.7,15.4,2.1,22.4,4.2,3,.9,5.8,1.9,8.6,3,4.7,1.9,9.1,4.3,13.1,7,2.5,1.7,4.9,3.6,7.2,5.6l37.1-2.1,19-135.6c1.6-12.2,1.7-23.3.3-33.4Zm-638.9-2.7c-1.4,10.2-4.6,19.4-9.5,27.5-4.9,8.1-11.2,15.3-18.8,21.6,7.9,4.9,13.8,11.6,17.6,20.1,3.9,8.5,4.8,19.4,2.9,32.7-2.1,15.1-6.5,27.5-13.1,37.3-6.6,9.8-14.5,17.7-23.7,23.7-9.3,6-19.5,10.4-30.7,13.1-11.2,2.7-22.4,4.3-33.6,4.9l-90.8,5,33.9-242.2,88.3-4.9c10.4-.6,20.6-.3,30.7.8,10.1,1.1,18.9,3.8,26.5,8.1,7.6,4.3,13.3,10.6,17.2,18.9,3.9,8.3,4.8,19.4,3,33.2Zm410.4,58.6c-2.2,16.3-6.4,30.7-12.5,43.1-6.1,12.4-13.3,22.9-21.7,31.5-8.4,8.6-17.5,15.1-27.3,19.7-9.8,4.6-19.5,7.1-29.1,7.6-8.2.5-15.4-.6-21.4-3.1-6-2.5-11-6-15.1-10.4l-8.2,12.5-48.7,2.7,33.9-242.2,66.8-3.7-9.1,64.1c5-2.8,10.3-5.1,15.9-6.9,5.6-1.8,12-2.9,19.3-3.3,10.2-.6,19.3,1.1,27.3,5,8,3.9,14.5,9.7,19.6,17.3,5.1,7.6,8.5,17.1,10.4,28.3,1.9,11.2,1.9,23.8,0,37.8Zm201.3-34.4l-16.5,117.6-58.9,3.3-6.7-9.5c-7,5.2-14.2,9.2-21.5,11.9-7.4,2.7-14.5,4.3-21.5,4.7-8.6.5-16.1-.3-22.7-2.2-6.6-2-11.9-5.1-16.2-9.5-4.2-4.4-7.1-10-8.8-16.9-1.6-6.9-1.8-15-.5-24.5,1.5-11.3,5.1-21.2,10.9-29.8,5.7-8.6,13.1-15.9,22.2-21.8,9.1-5.9,19.6-10.7,31.5-14.4,11.9-3.7,24.9-6.4,39-8-.1-2-1.6-3.4-4.3-4.4-2.8-1-7.6-1.3-14.6-.9-4.8.3-9.8,1-15,2.2-5.2,1.2-10.4,2.6-15.6,4.3-5.2,1.7-10.2,3.6-14.9,5.6-4.8,2-8.9,4.1-12.4,6.3l8.3-60.3c8.2-4,18.3-7.8,30.1-11.4,11.9-3.6,24.5-5.8,37.8-6.5,15.2-.8,27.6.2,37.3,3.1,9.7,2.9,17.2,7.3,22.6,13.2,5.4,5.8,8.8,12.9,10.2,21.2,1.5,8.3,1.5,17.3.3,27Z" style="fill:#cc527e;"/><path d="m8099.9,1006.4c2.7,13.6,2.8,29.7.2,48.2-2.7,19.2-7.6,36-14.4,50.3-6.9,14.4-15.6,26.4-26,36.3-10.5,9.8-22.5,17.4-36.1,22.7-13.6,5.3-28.3,8.4-44.1,9.3-16.5.9-31-.7-43.4-4.8-12.5-4.1-22.7-10.9-30.7-20.5l-4-5.1c-8.2-7.1-14.4-16.3-18.5-27.6l-8.5,60.4-83.1,4.6-3.7-4.6c-6.4,3.4-12.9,6-19.4,7.9-6.5,1.9-12.8,3-18.9,3.3-11.9.7-22.2-.5-31-3.5-8.8-3-15.8-7.7-21.1-14.2l-5.1-6.1c-7.3-5.6-12.3-13.4-15.1-23.2-.3-1.1-.6-2.1-.8-3.3-.8,1.5-1.7,3-2.6,4.4-7.8,12.3-17.3,22.1-28.3,29.5-11,7.4-23.1,12.7-36.3,16-13.2,3.3-26.5,5.3-39.9,6.1l-107.1,6-11.3-11.9,39-279.9,105.6-5.9c8.7-.5,17.4-.5,26.1,0s16.8,1.9,24.4,4.1c7.6,2.2,14.6,5.5,20.8,9.7,6.2,4.2,11.1,9.7,14.8,16.7l4.8,5.6c5,6,8.5,13.5,10.6,22.6,2.1,9.1,2.2,20.2.2,33.1-1.3,8.8-3.6,17.1-6.9,25s-7.5,15-12.6,21.5c5.2,6.5,8.9,14.3,11.1,23.4.3,1.1.5,2.2.7,3.3,3.5-5.5,7.5-10.7,12.1-15.5l10.9-80.2c6.1-3,12.7-6,19.6-8.8,7-2.9,14.2-5.5,21.7-7.8,7.5-2.3,15-4.2,22.6-5.8,7.6-1.6,15.1-2.6,22.5-3,21.8-1.2,38.9,1,51.5,6.5,12.5,5.5,21.6,13.3,27.1,23.3l4.8,5.6c5.7,6.8,9.4,14.8,11.1,23.7.2-.3.3-.7.5-1,7.1-14.5,15.8-26.8,26.4-36.7,10.5-9.9,22.6-17.6,36.3-23,13.7-5.4,28.5-8.5,44.5-9.4,19-1.1,35.3,1.2,49,6.9,13.7,5.6,24.2,14.9,31.3,27.9l3.7,4.1c7.3,8.9,12.3,20.1,15,33.7Zm-26.8,36.3c2.2-16.1,2.1-30-.5-41.6-2.5-11.6-7.1-21.1-13.7-28.6-6.6-7.5-15.1-12.8-25.3-16.1-10.3-3.3-22.1-4.5-35.4-3.8-13.4.7-25.7,3.3-37.2,7.8-11.4,4.5-21.5,10.9-30.3,19.2-8.8,8.3-16.1,18.5-22,30.6-5.9,12.1-9.9,26.2-12.2,42.3-2.2,16.1-2.1,30,.3,41.6,2.5,11.6,7,21.1,13.6,28.5,6.6,7.4,15.1,12.7,25.5,15.9,10.3,3.2,22.2,4.5,35.6,3.8,13.4-.7,25.7-3.3,37.2-7.8,11.4-4.5,21.5-10.8,30.3-19,8.8-8.2,16.1-18.4,22-30.5,5.9-12.1,9.9-26.2,12.2-42.3Zm-206.8-14.7c1.3-9.7,1.2-18.7-.3-27-1.5-8.3-4.9-15.4-10.2-21.2-5.4-5.8-12.9-10.2-22.6-13.2-9.7-2.9-22.1-4-37.3-3.1-13.4.7-26,2.9-37.8,6.5-11.9,3.6-21.9,7.4-30.1,11.4l-8.3,60.3c3.5-2.1,7.7-4.3,12.4-6.3,4.8-2,9.8-3.9,15-5.6,5.2-1.7,10.4-3.2,15.6-4.3,5.2-1.2,10.2-1.9,15-2.2,6.9-.4,11.8,0,14.6.9,2.8,1,4.2,2.5,4.3,4.4-14.1,1.7-27.1,4.4-39,8-11.9,3.7-22.4,8.5-31.5,14.4-9.1,5.9-16.5,13.2-22.2,21.8-5.7,8.6-9.3,18.5-10.9,29.8-1.3,9.5-1.1,17.7.5,24.5,1.6,6.9,4.5,12.5,8.8,16.9,4.2,4.4,9.6,7.6,16.2,9.5,6.6,2,14.1,2.7,22.7,2.2,6.9-.4,14.1-1.9,21.5-4.7,7.4-2.7,14.5-6.7,21.5-11.9l6.7,9.5,58.9-3.3,16.5-117.6Zm-196.4-47.3c1.9-13.8.9-24.9-3-33.2-3.9-8.3-9.6-14.6-17.2-18.9-7.6-4.3-16.4-7-26.5-8.1-10.1-1.1-20.3-1.4-30.7-.8l-88.3,4.9-33.9,242.2,90.8-5c11.2-.6,22.4-2.3,33.6-4.9,11.2-2.7,21.4-7,30.7-13.1,9.3-6,17.2-14,23.7-23.7,6.6-9.8,10.9-22.2,13.1-37.3,1.9-13.3.9-24.2-2.9-32.7-3.9-8.5-9.7-15.2-17.6-20.1,7.6-6.3,13.8-13.5,18.8-21.6,4.9-8.1,8.1-17.3,9.5-27.5Z" style="fill:#cc527e;"/><path d="m7989.4,1014.6c13.5-.8,18.8,9.9,15.9,32-1.8,12.6-4.9,21.3-9.2,26.1-4.4,4.9-9.7,7.5-15.9,7.8-3.1.2-5.9-.2-8.3-1.1-2.4-.9-4.3-2.6-5.7-5-1.5-2.4-2.4-5.7-2.8-9.9-.4-4.2-.1-9.4.9-15.7,2.9-22.1,11.3-33.5,25.1-34.2Z" style="fill:#cc527e;"/><path d="m7789.9,1077.2l-1.3,8.6c0,1.3-.6,2.8-1.5,4.6-.8,2.5-2.8,4.7-6,6.6-3.1,1.9-6.2,2.9-9.4,3.1-3.3.2-5.9-.4-7.8-1.8-1.9-1.4-2.6-3.7-2.1-7,.7-5,3.7-8.5,9.1-10.5,5.3-2,11.6-3.2,18.9-3.6Z" style="fill:#cc527e;"/><path d="m7599.9,986.9c2.5,1.5,3.4,4.3,2.8,8.6-.7,5.2-2.6,8.6-5.8,10.1-3.1,1.5-7.3,2.4-12.4,2.7l-27,1.5,3.2-23.1,27-1.5c5.6-.3,9.6.3,12.1,1.7Z" style="fill:#cc527e;"/><path d="m7594,1072.9c3.1,1.2,4.3,4.5,3.6,9.7-1,6.1-3.4,9.9-7.2,11.5-3.8,1.5-8.3,2.5-13.4,2.7l-31.9,1.8,3.6-25.3,31.9-1.8c5.8-.3,10.2.1,13.4,1.4Z" style="fill:#cc527e;"/><path d="m7397.2,1146.7l38.3,50-88.8,4.9-4.9-5.8c-6.1,3.1-12.6,5.6-19.4,7.3-6.8,1.8-13,2.8-18.6,3.1-10.5.6-19.5-.7-27.1-3.8-7.5-3.1-13.7-7.6-18.5-13.3l-3-3.6c-6.3-5.7-10.7-12.7-13.4-20.9-2.6-8.2-3.3-17.2-2.1-27,1.3-10.5,4.1-19.9,8.4-28.2,4.3-8.2,10-15.7,16.8-22.4-1.7-6.8-2.1-14.3-1.2-22.4.8-7.2,2.9-14.6,6.3-22.1,3.4-7.5,8.1-14.3,13.9-20.5,5.8-6.2,12.7-11.3,20.8-15.4,8.1-4.1,17.3-6.4,27.5-7,10.3-.6,19.2,1,26.9,4.6,7.6,3.7,13.5,9.2,17.5,16.5l3.2,3.6c3.7,4.6,6.3,10,7.9,16.4,1.6,6.3,2,13.5,1.2,21.5-.7,3.8-1.6,7.5-2.6,10.9l32.6-1.8,6.7,9.6c-4.8,14.8-9.6,27.7-14.5,38.7-4.9,11-9.5,20-14,27Zm4.8-61.1l-40.1,2.2c-1.2,3.2-2.9,6.7-5,10.4-2.1,3.7-4.1,7.1-6.2,10.3l-8.9-12.2c7.8-5.5,14.1-11.7,19-18.6,4.9-6.9,7.8-14.8,8.9-23.5.8-6.7.4-12.7-1.3-18-1.6-5.3-4.2-9.7-7.7-13.2-3.5-3.5-7.8-6.1-13-7.9-5.2-1.7-11-2.4-17.4-2.1-8.1.5-15.3,2.3-21.7,5.5s-12,7.2-16.5,12c-4.6,4.8-8.3,10.1-11,15.8-2.7,5.8-4.5,11.5-5.2,17.2-.4,4.8-.3,9.4.4,13.7.7,4.3,1.9,8.4,3.5,12.4-7.6,5.7-13.9,12.5-18.7,20.2-4.8,7.8-7.9,16.8-9.2,27.1-.8,6.7-.4,13.1,1.2,19.1,1.6,6,4.3,11.2,8.2,15.6,3.9,4.4,9,7.7,15.1,10.1,6.2,2.4,13.4,3.3,21.7,2.9,6.2-.3,12.9-1.6,20.2-3.8,7.3-2.2,14.1-5.4,20.3-9.8l7,8.7,56.7-3.2-27.7-36.3c5.1-6.7,10-14.6,14.7-23.7,4.6-9.1,8.9-19.4,12.7-30.9Z" style="fill:#cc527e;"/><path d="m7329.7,1051.2c.8,1.5,1.1,3.2.8,5.2-.3,2.3-1.3,4.5-2.9,6.6-1.6,2.1-3.9,4.5-6.9,7.2-2.6-4.1-3.6-8.4-3.2-12.7.2-2.2,1-4.1,2.3-5.7,1.3-1.6,3-2.5,5.1-2.6,2.3-.1,3.9.5,4.7,2Z" style="fill:#cc527e;"/><path d="m7300.1,1118.8l17.6,23.4c-2.8.8-5.5,1.2-8.3,1.1-2.8,0-5.2-.6-7.4-1.7-2.2-1.1-3.8-2.7-5-4.8-1.2-2.1-1.6-4.9-1.2-8.3.1-1.6.7-3.3,1.6-5,.9-1.7,1.8-3.2,2.6-4.7Z" style="fill:#cc527e;"/><path d="m4705.7,857.1c-11.3,59.6-21.7,119.3-27.9,179.6-7.4,68.9-10.6,138.4-21.2,207-1.4,8.6-2.7,17.2-4.2,25.7,0,.4-.5.7-.9.6-.4,0-.6-.4-.6-.8.5-8.7,1.1-17.3,1.7-26,4.3-59.3,7.6-122.5,13.7-181.6,6.9-69.2,19.8-137.8,38-204.9.1-.4.5-.6.9-.5.4.1.6.5.5.9h0Z" style="fill:#fdfae1;"/><ellipse cx="4496.7" cy="1428.8" rx="242.7" ry="47.5" transform="translate(-127 489) rotate(-6.1)"/><line x1="4236.2" y1="680.7" x2="4092.4" y2="307.3" style="fill:none; stroke:#000; stroke-linecap:round; stroke-miterlimit:10; stroke-width:77px;"/><path d="m4260.5,799.4c-64.5-160.5-125.9-324.5-182.7-487.8,64.5,160.5,125.9,324.5,182.7,487.8h0Z" style="fill:#fdfae1;"/><path d="m4329.2,941.7c-64.5-160.5-125.9-324.5-182.7-487.8,64.5,160.5,125.9,324.5,182.7,487.8h0Z" style="fill:#fdfae1;"/><path d="m4086.2,795.7c179.6,47.4,358,54.7,450.6,43.6" style="fill:none; stroke:#fdfae1; stroke-miterlimit:10; stroke-width:29px;"/><path d="m4724.8,847.7h0c.5-.7,1-1.3,1.5-1.9-.5.2-1,.4-1.5.6,0,0,0,0,0,0,.3-.3.3-.7.2-1.1,0-.1.2-.2.3-.4-.1,0-.2.1-.4.2-.2-.5-.7-.9-1.2-.9-1.1-.2-2.1.3-3,.9-.2,0-.3.2-.5.2,0,0-.2,0-.3,0-2.8-.9-5.7-.3-8.5.7.1,0,.2,0,.4-.1-3,1-5.9,2.3-8.7,3.6,0,0,0,0,0,0-12.6,2.4-25.3,4.7-37.8,7.6-13.8,3.2-31.9,7.6-37.1,7.9,1-.2,2.1-.3,3.1-.5-24,3.1-48,5.8-71.7,11.4-2.9.7-5.9,1.5-8.8,2.3-.3-.4-.6-.8-1-1.1-5.4-4.8-12-5.5-18.6-4-2,.2-3.9.6-5.9,1-13.8.2-27.7,1-41.4,3.3-3.9.6-6.8,1.1-9.3,1.5-1.2,0-2.4.2-3.6.6-1.3.2-2.6.4-3.9.5-1.3,0-2.6.1-4,.2-6.3.5-12.7,1.2-19,1.8-1.3.3-2.7.4-4.1.5-1.9-1.1-3.9-1.9-5.9-2.3-3.7-1.1-7.6-.6-11.4-.6-2.3,0-4.6.1-6.9.3-10.1-.3-20.2.4-30.3,1.2-6.1.5-12.2,1.1-18.2,1.6-3.2.4-6.8.5-10,1.6-.5,0-1,0-1.6-.1-12.3-1.1-24.6-3.4-37-3.4-.4,0-.8,0-1.2,0-5-.5-9.8-2-14.9-2.5-7.5-.7-14.9-1.6-22.3-2.9-8.4-1.6-17-1.6-25.4-3.5-4-1.1-7.9-2.3-11.8-3.9-5.9-2.6-12-4.6-18.3-6-4.3-1.1-9.2-1.4-13.5,0,0,0-.2,0-.3-.1-5.6-2.8-12.1-2.2-18.2-3-.7,0-1.4,0-2.1-.1-.8-.3-1.7-.6-2.5-.8-2.7-.8-5.4-1.5-8.1-2.2,1.3.3,2.6.6,3.9,1-1.5-.4-2.9-.7-4.4-1.1-.6-.2-1.2-.3-1.8-.4,0,0,0,0,0,0-.1,0-.2,0-.3,0-.4,0-.7,0-1.1,0-1.4,0-2.9-.1-4.3-.2-2.2.1-4.5.3-6.7.9-7.1-2.3-14.3-4.5-21.6-6.4-2.6-.9-5.3-1.7-8-1.8-1.9-.1-3.7,0-5.2.5-1.3-.6-2.6-1-3.9-1.5-5-1.6-10.3-3.1-15.5-3.6,0-.9-.1-1.8-.2-2.7-.3.9-.5,1.7-.7,2.6-2.2-.2-4.4-.2-6.7,0-1.1,0-2.1.2-3,.5-1.9-.7-3.9-.7-5.8-.3-7.2,1.5-5.3,14.1-4.1,19.6.5,1.9,1.1,3.7,1.9,5.5,0,.7,0,1.3,0,2-.2.6-.3,1.2-.5,1.9.4.5.6,1,.7,1.8,0,.7,0,1.4.1,2.1.5,3,1,5.9,1.3,8.9,1.3,0,2.5.8,2.6,2.5.1,5.1.9,10.1,1.1,15.2,1.3,1,2.8,1.7,4.3,2.1,0,7.6.2,15.2.7,22.7.7,13.8,2.1,27.6,4.5,41.1.9,5.2,1.3,10.5,2.1,15.8,1,6.6,2.3,13.1,3.5,19.6,3.4,18,7.2,35.8,11.5,53.5,3.3,13.8,5,28,9.1,41.7,2.3,8.9,1.6,17.8,3.9,26.7,2.2,8.7,3.7,17,4.2,26,1.4,24.5,8.6,49.1,11.6,73.4,1.2,8.8,1.8,17.6,3,26.4,1.6,10.1,3.6,20.1,4.6,30.2.9,9.2.3,20,2,35.7.2.2.3.4.5.6,3.3,4.8,3,12.2,4,17.9.9,5.6,2.9,10.6,1.6,16.2,0,.1,0,.2-.1.4.2,1.2.4,2.4.6,3.7.2,1.1.4,2.2.6,3.4.7,4,1.4,8,2.2,12,.5,2.4,1,4.3,1,6.5,1.5,5.9,2.4,11.9,3.5,18,.2,1.3,0,2.4-.5,3.3.1.8.2,1.5.3,2.3,1,1.2,2,2.4,3,3.6,4.8,5.2,10.5,9.4,16.3,13.2-.9.2-1.7.6-2.5,1.1.7.2,1.5.5,2.2.7,2.4.9,3.4,2.9,3.4,4.8,2.2-1,5.3-.3,6.4,2,.4,1,.8,2.1,1,3.2,1.3.2,2.7.4,4,.7,2.6,5.8,10.1,6.7,15.4,8.3.7.2,1.5.3,2.3.5,1,.3,2,.5,3,.7.3,0,.3,0,.2,0,1.8.4,3.7.6,5.6.6.9.2,1.7.5,2.6.7,3.9.7,7.9,1.2,11.8.5,7.5.6,15.2,2.3,22.5,0,.6-.2,1.1-.4,1.5-.6,3.9.8,7.9,1.5,11.8,2.4-.8-.2-1.7-.4-2.5-.6,4,1,7.9,2.1,11.9,2.8,4.1.7,8.2,1.2,12.4,1.7.3,0,.6.2.9.3,6.5,2,12.9,4.3,19.5,5.8,7.4,1.6,14.9,2.3,22.4,3.5,8.3,1.4,16.6,1.7,25,1.7,4.2,0,8.3,0,12.5-.4,3.1-.3,6.4-.8,9-2.8,1.4-.7,2-1.4,2.9-2.6.2-.3.8.4.9,0,.6,0,1.3.2,1.9.2,4.7,2.1,9.9.4,14.9.5,6.3.2,12.6-.3,18.9-1.1,1.1.4,2.2.6,3.4.8,3.6.2,7.3.6,10.9.1,11.2-1.3,17.9-2,24-2.7,11.6.2,23.2.7,34.7.3,6.3-.3,12.7-.4,18.7-2.4,9.2,0,18.3-.3,27.5-.9.5-.5,1.1-.9,1.9-1.3,8-3.3,16.5-4.8,24.9-6.6,1.1-.2,2.2,0,3.1.4,4.2-1.3,8.4-2.6,12.5-3.7,1.1-.3,2.3-.6,3.4-.9-2.6-3.5-3.1-8.6.8-12.8,6.9-7.6,16-12.7,24.9-17.7,2.3-1.3,5-1.4,7.4-.7,1.8-.9,3.5-1.8,5.3-2.7,2.5-1.2,5.3-1.5,7.8-.9,0-.3,0-.5.2-.8.7-2.1,1.3-4.3,1.9-6.4.5-1.9,1-3.9,1.5-5.8,1.8-7.2,3.4-14.5,5.3-21.8-.6-.4-1.1-.9-1.7-1.3-.6-.4-1.3-.7-2-1,.1-.3.2-.5.4-.8.9-1.7,1.8-3.4,2.5-5.1.2-.4.4-.7.5-1.1,2.8-6.1,4-12.7,5.3-19.3,1.3-6.8,2.5-13.6,1.8-20.5-.7-8.2-1.2-4.8,0-14.7.2-2.8,1.4-5.7,1.3-8.6.6-3.5,1.1-6.9,1.9-10.3,1.5-7.2,3.7-17.6,5.9-27.1,1-4.3,2-8.5,2.9-12.8.9-3.2,1.8-6.5,2.7-9.7.9-3.6,1.7-6.6,2.3-9.4,2-7.2,3.9-14.5,5.5-21.8-.6-.8-.9-1.7-.9-2.9,0-6.7,1.5-13.5,2-20.3.4-4.8,1.9-9.6,3.3-14.4.5-2.9,1-5.7,1.6-8.6-.3-.6-.5-1.3-.5-2.1,0-9.4.7-19.4,4.7-28,.8-5,1.6-10,2-15.1,0-.7.3-1.4.7-2-.6-.5-1.2-1-1.9-1.4-.4-1.3-1-2.5-1.9-3.5-.8-1-1.7-1.9-2.7-2.6,3.1-19.8,7.8-39.4,9.6-59.3,2.3-12,4.4-24,6.7-36,4.2-24.9,5.2-50.3,6.3-75.5.1-4.2.2-8.5.3-12.7,1.3-2,1.9-4.4,2.5-6.8,1.8-8.2,4.1-16.2,5.9-24.3,1.4-3.9-2-10.4-.3-16.2.9-4.8,1.9-15,2-20.8-.1,0-.3-.1-.5-.3-.3-.9-.9-1.8-1.7-2.6Zm-564.2,228.4c.2,0,.5.1.7.2.1,1.7.2,3.5.3,5.2-.3-1.8-.7-3.6-1-5.4Zm148.2-165.1c-.1,0-.2-.2-.3-.3,1.9,0,3.3.2,4.5.2-1.4,0-2.8,0-4.2,0Zm17.1,66.7c-.8,0-1.6.1-2.5.2.9-.2,1.8-.5,2.7-.7,0,.2-.1.4-.2.5Zm225.4,262.7c0,.2,0,.4,0,.7-.6,0-1.3,0-1.9.1.2-1.2.4-2.4.7-3.7.5.3,1,.6,1.5.8,0,.7-.2,1.4-.3,2.1Zm59.4,149.2c0-.3-.1-.6-.2-.9.2.2.5.4.7.5-.2.1-.4.3-.5.4Z" style="fill:#fbd254; stroke:#ffe56e; stroke-miterlimit:10;"/><path d="m4182.3,1223.5c-19.8-108.2-35.8-218.4-47.5-327.8,19.8,108.2,35.8,218.4,47.5,327.8h0Z" style="fill:#fdfae1;"/><path d="m4212.7,1134.3c.6,0,1.2-1,1.7-1-.6,0-1.2,1-1.7,1h0Z" style="fill:#fdfae1;"/><path d="m4614.8,1015.2h0c-.1,0-.3,0-.4.1l-1.1.3-1,.3-3.1,1.1-3.7,1.4-2.9,1-2.5.9-2.3.9-1.9.7-1.6.6-1.7.7-1.5.6-1.7.7-1.9.8-1.9.7-1.8.7-1.8.6-1.8.5-1.6.4-1.5.4-1.4.4-1.4.4-1.4.5-1.3.4-1.4.4-1.5.4-1.4.3-1.6.3-1.7.3-1.9.3-2.1.4-2.4.5-2.4.4-2.6.5-2.7.4-2.5.4-2.3.3-2.2.3-2.1.3-2.5.2-2.7.2h-2.5c0,.1-2.3.2-2.3.2h-2.1c0,.1-2,.2-2,.2l-2.1.2-2.1.2-2.1.2-1.9.2-1.8.3-1.8.3-1.8.3-2,.4-2,.4-1.8.3-1.7.3-1.7.3-1.8.3-2,.4-2,.3-2,.4-2,.3-2,.4-2.1.3-2.3.3-2.5.4-2.7.4-3,.5h0c-1,.2-1.9.4-2.9.5h0c-.9.1-1.9.2-2.8.2h-2.7c0,.1-2.8.3-2.8.3h-3c0,.1-3.1.3-3.1.3l-3.1.2-3.3.2-3.3.2h0c-1,0-1.9.1-2.9.1h0c-.8,0-1.5,0-2.3,0h0c-.5,0-1-.1-1.5-.2" style="fill:none;"/><path d="m4651.9,743.8c0,0-.2,0-.3,0,0,0,.2,0,.3,0,0,0,0,0,0,0Z" style="fill:#ffeb8a;"/><path d="m4801.6,715.6c-1.1-1-2.5-1.6-4-2.1-.7-2.2-1.7-4.4-3.4-5.9,0,0,0-.2,0-.2,0-.2-.2-.4-.4-.5-1.1-.9-8.2-2.4-9.6-.9,0,0,0,0,0,0,0,0,0,0,0,0-.1.1-.2.3-.2.5-.6,1.6-.8,3.4-.4,5.1-.9,0-1.8.1-2.7.3-.5.2-1.2.3-1.6.7-.6.5-.7,1.2-1,1.9-.1.4-.3.7-.5,1-.5.5-1.9.8-5.1,1.9-4.3,1.2-7.9,4-12,5.6-4.8,1.3-9.5,2.1-14.2,3.9-7.2,2.6-13.4,5-19,7.1-.3,0-.5.2-.8.2,0,0,0,0-.1,0-5.2-.7-10.4-1-15.7-.5-4.1.4-8.1,1.3-11.9,3-4.3,2-3.7,2.1-5.6,2.6-5.2,1.1-10.5,1.9-15.8,2.7-.9-.5-2.1-1-3.4-1.5.7-.1,1.3-.3,2-.6.7-.4.9-.8.5-1.3-.1-.5-.4-.8-.9-1-1.3-1-3-1.5-4.5-2-.9-.3-1.8-.6-2.8-.8-1.4,2.9-4.3,5.2-8.5,5.2-9.9.2-19.8.7-29.8,1,7.2.9,14.3,1.8,21.4,2.5-2.2-.2-1.4-.2-.5,0,.3,0,.5,0,.8.1.7,0,1.5.2,2.2.2-.9,0-1.6-.2-2.2-.2,2,.3,4,.6,6,.9.8.1,1.6.3,2.4.4-1.4.3-2.7.5-4,.8-5.5,1.1-10.9,2.4-16.3,3.8-.7.1-1.4.2-2.1.4-3,.3-6.1.3-9.2.6-6.7,1-9.4,1.3-12.6,1.7-11.3,0-22.5.6-33.7,1.3,0,0,0,0,0,0,5-1.6,14.3-4.2,21-6.1,3.6-1.1,7.3-2.1,11-3.2,3.2-1,6.4-2.2,9.6-3-7.9.1-15.8,0-23.7-.6-.2,0-.3.2-.5.2-2.7,1.3-5.5,2.5-8.2,3.8-6.7,3-13.5,6.1-19.9,9.8-1.5.1-3,.3-4.5.5-3,0-6,0-8.9.4-3.5.6-6.7,1.1-9.8,1.6-10.6-.5-21.3-.5-31.9,0-3.7.2-7.4.3-11.2.4-5.3,0-10.6,0-16,.2-1.1,0-2.2-.1-3.3-.2-19-1-38-1.1-57-1.6-.7,0-1.5,0-2.2,0-5.4,0-10.8,0-16.2,0-14.6,0-29.1.3-43.7,0-5.6-.6-14.1-1.4-15.6,1.3-3.5-.7-7-1-10.5-1.1-7.2.2-19.1,0-30.6,0-4.7-.3-9.3-.6-14-.9-6.9-.4-13.8-1.1-20.7-.6-1.7.2-3.5.5-5.2.8-5.1-.6-10.1-1.1-15.1-1.6,0,0,0,0-.1,0-11.3-2.1-22.8-3.2-34.2-4.7-2.7-.3-5.3-.7-8-1-1.1-.2-2.2-.5-3.3-.7-.7.6-1.6.9-2.7.9-11.7,0-23.5,0-35-2.3-5.2-1.1-10.2-3.3-15.2-5.3-.2,0-.3-.1-.5-.2-3.7,0-7.4.2-11.1.6-.5,0-1.4,0-2.3.3-10.2-2-20.6-3.3-31-3.9-3.4-.3-6.9-.5-10.3-.6-.2,0-.4,0-.6,0-3.6-.9-7.1-1.8-10.7-2.8-.3,0-.6-.2-.8-.3-4.1-1.5-8.2-2.6-12.3-3.8-2.4-.8-4.8-1.8-7.3-2.4-1-.3-2-.6-3-.8-.6-.2-1.1-.4-1.6-.6-3.6-2.1-7.2-4.2-10.7-6.4-.5-.5-.9-1.2-1.5-1.7-.8-.9-1.6-1.8-2.4-2.7-1,.4-2.2.6-3.3.6-1.9,0-3.7-.9-5.3-1.8-.6,0-1.2-.2-1.7-.5-4.7-2.6-9.6-5.1-10.3-11-.2-1.3.3-2.4,1.2-3.2-.5,0-1.1-.2-1.6-.3-2-.3-1.7,3.8-3.7,3.7-1.2,3.5-4.7,1.7-7.1,4.5-3.6,4.2-4.7,10.9-4.9,16.1-.2,5-.5,10.8,1,15.6,1.6,5.2,6,9.1,9.8,12.7,1.9,1.8,3.8,3.6,5.9,5.1.4.1.7.2,1.1.4,4.9,1.8,9.8,3.7,14.8,5.4,0,0,0,.2,0,.2-.7.3-1.4.6-2,1-.2.2-.5.5-.7.7,1.1,1.1,2,2.4,2.7,4.1,1.6,4.1.6,8.7,2,12.9,1.9,5.5,4.2,11.1,7.1,16.2.6,1,.7,2,.5,2.9,1,.7,2.2,1.4,3.4,1.8,4.6,1.5,9.4,2.7,14.3,3.1,3.1,1.3,6.3,2.6,9.4,3.9-3.4-.4-7.6-.7-13.2-.5-2.1.2-3.7.5-4.9.8,3.4,2.4,4.8,5.7,5.1,9.8,0,1.2-.3,2.2-.9,2.9,0,.1.1.3.2.4.3.3.7.6,1,.9.2,0,.4.1.6.2-.1,0-.3,0-.4,0,2.2,2.2,3.9,5.1,6,7.5,0,0,.1.2.2.2.5.3.9.6,1.4,1,1,.7,2,1.5,2.9,2.4.3.3.7.7,1,1,2.1.4,4.2.9,6.2,1.3,6.4,1.4,12.9,2.7,19.3,3.8-4,0-8.2.4-7,2.7,1.9,1.5,4.2,2.3,6.5,2.9,4.1,1.3,8.3,2.4,12.5,3.5,6.3,1.7,12.6,3.3,19,4.6,6.7,1.5,12.5,2.8,17.8,3.9,1.8,0,3.6.4,5.5.7,5.1,1,10.2,2,15.2,3.2,1.5.3,2.9.7,4.4,1,.9-1,2.4-1.6,4.2-1.1,2.6.7,5.3,1,8.1,1.2,3.6.2,7.3.2,11,.7,4.4.5,9.2.4,13.4,2.1,2.4,1,5.8.9,5.4,2.8,2.7.4,3.3,1.3,6,1.5.1,0,2.1.4,2.3.4,4.7,1,6.9.7,11.7,1.5,7.8-.1,15.9,2.5,23.7,2.8,2.1,0,8.9-3.7,8.7-2.1,6.4.6,7,6.3,13.4,5.3,2.1-.4,4.1-1.3,6.1-2,2.6-.2,3.1-2.4.4-3.4-.8-.6-1.6-1.1-2.5-1.6,2.3.4,4.7.7,7,1.1,9.6,1,14.7.3,22.8.1.3,0,.7.2,1,.2,1.9.4,3.9.7,5.8,1,.1,0,.2,0,.4.1,3.6,1.2,7.4,1.8,11.1,2.3,7.1.9,14.3,1.2,21.4,1.5,3.6.6,7.3.9,11,1.2,8.2.6,16.4.7,24.7.9,5.7,0,11.4,0,17.1-.3,2.9-.3,6-.1,8.9-.8,4.9,1,9.9,1.3,14.8,1.1.4,0,.8,0,1.2,0,14.6.8,29.3.5,43.9.3,1.9,0,3.8,0,5.8,0,.4,0,.7,0,1.1,0,4.2.3,8.5.4,12.7-.3.8-.2,1.7-.5,2.5-.8,1.1,0,2.2,0,3.3,0,11.5-1,12.2-3.1,8.7-5,1.5,0,3,0,4.6-.2,1.2,0,4-.5,3.5-2.1,9,1,19,2.2,28.9,3.1.3-.4.6-.7,1-1,1.9-1.3,4-4,6-3.2,4.3-.6,8.4,1.5,12.7,1.3.6-.9,1.6-1.5,3.1-1.5,7.3-.2,13.9-4.1,21.2-4.6,0,0,0-.2,0-.4,7.3-1.3,14.6-2.8,21.8-4.2,10.5-2.2,15.7-3.1,22.3-4.4,7.7-.9,15.3-2,22.8-3.7.8,0,1.5-.4,1.9-1.1,0-.1,0-.2,0-.3.6-.2,1.2-.4,1.9-.6,0,0,0,0,.1-.1,6.5-.9,10.4-1.4,24-3.2.2,0,.3,0,.5,0,3.5-.5,6.9-.8,10.3-1.7,3.4-1.1,6.7-2,5.4-3.6.2,0,.3,0,.5,0,3.6-.6,7.2-.9,10.7-2.1.8,0,1.6,0,2.4,0,2.7,0,5.4-.1,8.1-.3,4.6-7,10.2-13.3,14.6-20.6,2.2-3.6,4.7-7,6.9-10.6,1.3-2.2,2.2-4.8,4.6-6,.2-.1.5-.2.7-.3-.3-.8-1.1-1.5-2.1-2,.3-.7.6-1.4.9-2.1.7-1.2,1.5-2.3,2.2-3.5,0,0,.1-.1.2-.2,2.9-3.9,4.3-8.6,6.2-13,.7-2,1.4-4.1,2.1-6.2.4-1.3.9-2.7,1.3-4-.2-.6-.7-1.2-1.4-1.7,0-.2.2-.4.2-.6,3.3-4.4,6.3-8,10-11.9,1.9.6,4,.7,5.7.3,0,0,.1-.1.2-.2h0c1.1-1.2,1.8-2.6,2.4-4.1,1.2-1.7,2.4-3.3,3-4.2.3-.5,1-1,.7-1.6-.3-.5-.8-.8-1.2-1.1,0-.2.1-.4.2-.6.7-.4,1.3-.8,2-1.2,0,0,0,0,0,0h0c.5-.3.7-.6.4-1-.2-.6-.6-1-1.3-1.2,0,0,0,0,0,0,.1-.6.3-1.1.4-1.7,1-.6,2-1.3,2.9-2.1,1.2-1.4,2.1-3.1,2.5-4.9.1-.7.1-1.5.1-2.3,1.2-2.8,2-5.7,2.2-8.7.7-1,1.3-2.1,2-3.2.5-1.1,1.8-2.5.9-3.7Zm-608.2,123.6c-5.4-.9-10.9-1.6-16.4-2.2-2.7-1-5.4-1.9-7.9-2.8,7.2.7,14.2,1.5,20.8,2.1.6,0,1.3.1,1.9.2,1.7.7,3.4,1.4,5.1,2.1.3.1.6.3.8.4-1.4,0-2.9,0-4.3.2Zm18.6-47c-3.7-.7-7.4-1.4-11.1-2.1-11.9-2-23.9-3.4-35.9-4.4-.7,0-1.5,0-2.2-.1-4.4-1-9-2.1-14.5-3.5,1.2-.3,2.4-.9,3.4-1.7,4.3,0,8.9.2,14.7.3,7.7.7,15.3,1.4,23,2.1,7,.9,14,1.9,21.1,2.8,3,.8,6,1.6,9,2.4,2.4.6,4.5,1.1,6.3,1.6.3.2.6.3,1,.5.1,0,.3,0,.4.2-5.1.6-10.1,1.3-15.2,2Zm53.4,78.8c-.4.1-.9.3-1.3.4,0,0,0,0-.1,0-1,0-1.9-.2-2.9-.3.5,0,1.1.1,1.6.2-4.6-.5-8.5-1-12.5-1.7.2-.8-.6-1.8-1.6-2.1-.6-.3-1.3-.6-1.9-.9,1.7,0,3.4,0,5.1-.2.7,0,1.4-.2,2.2-.3,2.6.8,5.2,1.8,8.1,2.9,1.4.6,2,.6,3.9,1.8-.2,0-.4.2-.6.2Zm-13.3-19c1.9,0,3.8,0,5.7,0,1.4.3,2.8.6,4.2.9,2.4.6,4.9,1.2,7.3,1.9-5.7-.9-11.4-1.8-17.2-2.8Zm62.6-54.9c-4.7.5-9.2.8-13.4,1.1-4.9-.1-9.4-.3-13.6-.4,2.5-.6,5-1.3,7.5-2,8.8.2,17.6.3,26.4.3-3.2.5-6.2.9-6.9,1Zm281.2,69c.3,0,.6,0,.8-.1-.3.2-.5.3-.8.1Zm105.6-84.2c-.6-.1-1.3-.3-1.9-.4,3.4-.8,6.8-1.6,10.5-2.5-2.9.9-5.8,1.8-8.6,2.9Zm31.9-7.9c-.8,0-1.7,0-2.5.2-.8.1-1.7.3-2.5.4,1.9-.5,3.8-1.1,5.4-1.7-.1.4-.3.7-.4,1.1Z" style="fill:#ffeb8a;"/><path d="m4216.1,738.1c-.6-1.4-1.5-2.7-2.2-4-1.8-3.1,1.2-6.3-.6-9.5-.3-.3,3-3.1,2.3-6.4-.4-1.8-6.1-4.6-6.4-6.4,0-.5,8-2.9,7.9-3.4,0-2.7-7.4-4.5-7.5-7.2-.6-8.2-5.6-15.6-5.5-23.8,0-.2-.2-.4-.4-.6,0,0,0-.1,0-.2.7-2.5.9-5.3.8-7.9,0-.2,0-.4,0-.6.7-.3,1.5-.7,2.2-1.1,4.7-3.4-12-6.3-14-6.6-4.5-.6-9.1-.9-13.6-.2-5.3-.1-10.7.3-15.9,1.2-.4,0-.9.1-1.3.2-2,.3-3.9.6-5.7,1.5,0,0,0,0-.1.1-2.1.4-4.2.9-6.3,1.3-2,.5-4.7.5-5.8,2.5,0,.2,0,.3,0,.5-.6,0-1.1.1-1.6.2-2,.2-3.9.6-5.9.9-3,.2-6,.3-9,.9-2.5.3-4.9,1-7.3,1.5-2,.3-3.9.6-5.9.9-9.3,1.7-11.3,2.4-17.2,3.2.7,0,1.4-.2,2.1-.3-.9,0-1.7.2-2.6.4-3.8.2-7.5.9-11.1,1.7-3.1.4-6.2,1-9.2,1.8-4.9,1-9.6,2.8-14.2,4.8-1.9.4-3.9.9-5.8,1.5-.5,0-1,.2-1.4.5-.8.3-1.6.5-2.4.8-4.2,1.3-12.6,4.9-20.4,7.9-.6.2-1.1.4-1.7.6-.4.2-.6.6-.9.9,0,.6.4,1.1,1,1.3,1.5,1,3.2,1.6,5,2.1-1.4.3-2.5.8-3.2,1.6.7,2.3,2.5,4,4,5.9,6.5,7.9,16.7,10.4,26.6,11.7,0,0,0,0,0,0-.2,0-.4,0-.7,0-7.1.7-6.9,3.3-.5,5.9,10.1,4,21.1,6.2,31.7,8.2,13.4,2.4,27.1,4.1,40.7,3.9,1.1,0,2.2.2,3.4.3,0,0,.2,0,.2,0,0,0-.1,0-.2,0,0,0,.2,0,.3,0,2.5.4,5,.8,7.4,1.1,5.6.9,11.3,1.5,17,2,6.2,1.4,12.6,2,19,2.6.4.1.9.3,1.5.4,4.7,1.4,9.5,2.2,14.4,2.7,4.5.3,9.3.6,13.4-1.4.1,0,.2,0,.3-.1,2.2-.7,4.6-1.4,5.8-3.4.5-.8,0-1.8-.4-2.6Zm-112.9-51.3c-.5,0-1,0-1.4,0,1-.3,2-.5,3.1-.9-.5.3-1.1.6-1.6.9Zm32.2,49.7c-3.7-.5-3.2-.6-1.8-.4,1.1.2,2.2.4,3.3.6-.6,0-1.2-.1-1.6-.2Z" style="fill:#ddd2c0;"/><path d="m4657.1,689.6c0,0,.1,0,.2,0,0,0,0,0,0,0-.1,0-.3,0-.3.1Z" style="fill:#d65a3a;"/><path d="m4778.1,714.2s0,0,0,0c0,0,0,0,0,0Z" style="fill:#d65a3a;"/><path d="m4593.1,848.1c-11.5.2-23,.4-34.4.6s-13.2,6.6-17.5,10.7c-.9.9-10.2,11.5-5.4,11.5,11.5-.2,23-.4,34.4-.6s13.2-6.6,17.5-10.7c.9-.9,10.2-11.5,5.4-11.5h0Z" style="fill:#ffe375;"/><path d="m4558,849.5c-4.3-.8-8.8.3-12.8,2-8,3.6-14.8,9.5-20.7,15.8-1,1.1-6.8,8.1-2.7,8.6s7.1-.5,10.3-2c6.1-2.9,11.9-7.2,16.5-12,1-1.1,10.6-10.6,5.4-11.5s-5.7,1.8-7.5,2.9c-3.6,2.2-7.1,4.8-10,7.8,3.1-3.5,6.7-6,10.9-7.5-.8.2-1,.2-.6.2.4,0,.2,0-.6,0-.5,0-1.1,0-1.6-.1-.9,2.9-1.8,5.7-2.7,8.6-3,3.7-6.6,6.6-10.7,8.7-.6.4-1.2.7-1.9.9,0,0,2.1-.6,2.2-.6-1.2.2,1,0,1.1,0,.8,0,1.5.2,2.3.3,2.1.4,6-2,7.5-2.9,3.5-2.1,7.1-4.9,10-7.8s10.3-10.5,5.4-11.5h0Z" style="fill:#ffe375;"/><path d="m4212.7,656.3c-10.3,0-10.3,16,0,16s10.3-16,0-16Z" style="fill:#fdfae1;"/><path d="m4499.6,734.4c0-2.1-.8-4.2-2.3-5.7-1.6-1.4-3.5-2.3-5.7-2.3-.3,0-.7,0-1,0,0,0-.1,0-.2,0-1.4-.4-2.8-.4-4.3,0-1,.2-1.9.7-2.7,1.4-2,1.6-3,3.7-3.2,6.3,0,.4,0,.7,0,1.1,0,2,1,4.3,2.3,5.7,1.4,1.4,3.7,2.4,5.7,2.3.2,0,.5,0,.7,0,1.4.3,2.9.4,4.1,0,1.7-.5,3.1-1.5,4.2-2.9.1-.2.2-.3.4-.5,1.2-1.4,2.1-3.5,2-5.3Z" style="fill:#fdfae1;"/><path d="m4799,712.5c0-3.7-1.7-7.1-5.7-8.2-3.7-1-9.2,1.3-9.8,5.6-.7,5.1,1.4,9,1.2,14-.2,4.2-1.5,7.5-3.9,10.8-3.7,5.2,1.4,11.9,6.9,12,.6,0,1.2,0,1.8,0,5.4.2,8-4.1,7.7-8.3,4.1-8.1,4.3-17.3,1.9-26Z" style="fill:#ffe375;"/><path d="m4722.4,850.8c-56.1,23.7-115.6,38.4-175.7,47.8-40.2,6-81,9-121.6,8.5-101-1-203.1-13.6-298.7-47.3-12.8-4.7-25.4-9.6-37.6-15.6,0,0,3.9-9,3.9-9,12.5,3.9,25.3,7.3,38.1,10.4,109.3,25.4,222,34.2,334,32.4,79-2.5,157.7-14.5,234.4-33.3,6.4-1.5,12.9-3.3,19.1-5,0,0,4.1,11.2,4.1,11.2h0Z" style="fill:#ef7e42;"/><path d="m4769.9,776.6c-65.3,20.8-133,33.4-201,41.4-45.4,5.1-91.3,7.7-137,7.2-113.8-.9-228.5-11.3-338.8-40.6-14.8-4.1-29.4-8.3-43.7-13.7,0,0,3-9.4,3-9.4,7.2,1.6,14.6,3.1,21.9,4.5,114.3,21,230.6,28.5,346.6,30.2,18.4.2,37.7.2,56-.1,89.7-2,179.3-11.6,267.8-26.9,7.4-1.2,14.8-2.6,22.1-4l3.1,11.5h0Z" style="fill:#ef7e42;"/><path d="m4753.7,814.5c-27.9,7.8-56.1,14.3-84.4,20.2-92,18.3-186,29.8-280,25.9-21.6-1.7-43.2-2.2-64.8-3.6-57.6-3.7-115.3-9.6-171.8-21.5-24.8-5.4-49.7-11.5-73.3-21.2-3.2-1.4-6.5-2.8-9.6-4.5,0,0-.7-.4-.7-.4l5.1-8.4c12.4,6.6,25.7,10.9,39.1,15.1,41.1,12.3,83.7,19.1,126.2,24.5,113.8,13.7,229.4,15.4,342.9-2.2,49.6-7.4,98.9-17.2,147.5-29.6,6.9-1.8,13.9-3.6,20.6-5.6l3.3,11.4h0Z" style="fill:#ef7e42;"/><path d="m4367.7,1020.3c-15.4,2.1-31.1,2-46.6,1.7-15.6-.4-31.1-1.4-46.6-2.7-26.9-2.4-54.3-6-80.8-11.4,0,0-5.7-1.2-5.7-1.2-2-.4-3.7-1.4-5.5-2.1,1.9.3,3.9.8,5.7.9l5.8.5c31.1,2.8,73,6.7,104.2,9.4,22.4,1.9,47.1,4.4,69.5,5h0Z" style="fill:#fdfae1;"/><path d="m4161.5,993.4c6.3,28.4,10.8,58.4,14.8,87.3,3.9,29.3,7.3,58.6,8.9,88.1-6.3-28.9-10.8-58.1-14.8-87.3-3.8-28.9-7.4-59-8.9-88.1h0Z" style="fill:#fdfae1;"/><g style="fill:none; opacity:.5;"><path d="m4175.5,1010.2c38.7,8,78.1,12.1,117.4,14.9,44.1,3,88.2,3.7,132.3,2.5,19-.4,40-1.3,59-2.1,34.1-1.7,68.5-3.6,102-9.9,19.5-3.4,38-10.4,57.4-14.6-13.3,7.1-26.1,14.9-40,20.9-42,18-87.8,23.6-132.8,27.4-89.7,6.5-181.9,1.6-267.6-27.6-9.4-3.3-18.8-7-27.8-11.5h0Z" style="fill:#f18a58;"/></g><path d="m4761.7,681.4c-9.1-1.5-18.5-1.5-27.6-2.2-8.3-.6-16.6-1.1-24.9-1.7-19.6-1.3-39.2-2.6-58.8-3.9-8.4-.6-16.4,7.8-16,16,.1,2.7.8,5.1,1.8,7.2-1.6,1.1-2.7,2.9-2.6,5.5,0,.7,0,1.4,0,2.2-6.2,1.9-12,5.2-17.3,8.9-8.7,6.2-16.8,14-27.2,17.3-2.8.9-4.3,2.9-4.7,5.1-.3.1-.6.2-.9.3-3.5,1.4-5.9,4.6-4.9,8.6.9,3.3,5.1,6.3,8.6,4.9,13.5-5.5,29.2-4.7,43.6-5.3,15.5-.7,31.1-1.1,46.6-1.6,5.7-.2,7.8-5.6,6.3-9.6,18.4-.9,36.7-3.8,54.5-8.6,1.6-.4,3.1-1.2,4.5-2.1,3.7-.4,7.4-.7,11.1-1.1,10.5-1.1,21.9-2.9,25-15.1,2.9-11.7-5.6-23-17.1-24.9Z" style="fill:#ddd2c0;"/><path d="m4519.7,1422.6c4.9-2.2,7.5-4.9,12-.6-4,.2-8,.4-12,.6Zm77-10.1c-5.3,3.6-13.5,2.3-20.5,3.7,3.3-5.1,17.7-4.2,20.5-3.7Zm135.4-563.5c.2-1.5.3-3.1.4-4.6-15.7,1.3,94.7-104.7,72.7-95.8-24.3,7,1.1-41.1-27-34.1-2.2.6-220.7,38.7-220,40.9,0,0,1.9,1.7,4.4,3.8,8,6.9,13.2,16.5,14.3,27,.6,6.3-.5,10.3-3.2,13.2-2,2.1-22,82.3-23.4,79.7s-.5-2.2-.6-2.2c-.3,92.9-6.4,188-4.8,281.1-5.8,82,4.1,170.9-26.6,248.3.2-.3.4-.7.7-.9-27.4,17.4-76.8,15-97.8,19.4,6.9,1.1,48,1.2,55,1.1-70.2,1.1-138.2-1.8-206.4-12.2-14.9-1-61.1-20.1-60.5-2.9.2,5.6,1.1,10.6,5.8,14.9,33.5,29.7,166.4,28,191,32.3,55.4,7.4,107.6-10.9,163.8-12.4,58.4-14.8,35.5.4,57.2-44.7,3.5-5.7,13.4-6.8,17.6-14,15.9-27.7,25.7-65.8,29.1-99.2,20.4-75,18.2-152.4,30.6-228.3,7.5-28.5,9.2-56.6,11.5-86.5,9.6-25.3,8.9-56.1,12.2-85.2,0,0,0,.1,0,.2,1.5-13,4.1-26.9,4-38.9Z" style="fill:#f18a58; mix-blend-mode:darken; opacity:.7;"/><path d="m4104.1,738.7c14.8,3.2,30.2,4.4,45.2,6.5,15.4,2.1,30.9,4.3,46.3,6.5,55.4,7.8,110.4,6.7,166.4,6.9,56.4.1,113-2.7,169.4-2.8,14.5,0,28.3.4,41.2-6.2,12.5-6.3,25.7,2.7,37.8,0,24.7-5.6,48.9-8.4,74.2-11.6,19-2.4,35.5-7.3,54.5-8.7,4.7-.4,2.4-1.3,7.2-2.1.6-2.7,12,1.3,14.5.2,11.4-5.2,20.6-14.1,33-16.2,3.5-.6,9.3,4.2,11.8,6.5.3-.2.5-.3.8-.5-.7-.3-1.3-.8-1.9-1.3-5.2-4.5-8.8-10.4-10.2-17.1,0,0,0-.1,0-.2-57.5,10.5-208.1,40.6-386.8,40.6s-309.6-26.7-374.5-38.7c-1.9,4.7-4.2,9.2-7.3,13.3-.1.2-.3.3-.4.5,26.6,7,51.8,18.5,78.7,24.3Z" style="fill:#ddd2c0;"/><path d="m4034.1,695.2c-9.2,9.4-19.7,16.2-20.4,24.7-1.4,18.5,3.5,26.4,15,32.5,5.7,3.1,14.5,5.1,17.3,10.8,5.4,11.3-1.9,17.4,7.2,29.2,9.4,12.2,12.8,11.3,12.9,11.3" style="fill:none; stroke:#000; stroke-miterlimit:10; stroke-width:6px;"/><path d="m4619,1402.8c-47.9,14.1-103.8,24.3-215.4,24.3s-200.8-25.5-200.8-25.5" style="fill:none; stroke:#000; stroke-miterlimit:10; stroke-width:6px;"/><circle cx="4536.6" cy="1298.7" r="25.2"/><path d="m4649.7,1336c.5-6.4,1.7-12.6,3.1-18.8.4-2,.7-3,.8-4.2-.3-1.1-.5-2.3-.5-3.5-4.2-6.2-11.3-10.2-19.3-10.2-12.9,0-23.4,10.5-23.4,23.4s10.5,23.4,23.4,23.4,11.4-2.2,15.5-5.9c.1-1.4.2-2.8.3-4.2Z"/><circle cx="4565.1" cy="1367.2" r="31.7"/><ellipse cx="4457.6" cy="1371" rx="36.5" ry="38" transform="translate(-161.5 727.5) rotate(-9.2)"/><ellipse cx="4237.5" cy="1354.3" rx="26.3" ry="25.3" transform="translate(-58.1 197.4) rotate(-2.7)"/><path d="m4043.8,756.9c45.3,11.2,91.9,19.3,138.1,25.6,37.9,5.3,78.3,9.2,116.4,11.8,6.4.4,26,1.4,32.1,1.8,9.2.3,28.7,1,38,1.4,78,1.8,156.2-2.4,233.7-11,46.5-5.3,93-11.7,138.7-21.8,11.3-2.6,22.6-5.4,33.4-9.5,3.3-1.3,6.8-2.8,9.3-4.9,0,0,4.2,4.2,4.2,4.2-3.3,3.3-7,4.9-10.9,6.8-10.9,5-22.4,8.4-33.9,11.7-114.4,29.5-233.3,41.3-351.3,40.7-66.6-.7-134.3-6.4-200.1-16.8-22.8-3.7-47.1-8.2-69.7-13.1-18.9-4.2-38.7-9-57.3-14.3-7.6-2.2-15.1-4.4-22.7-6.9,0,0,1.8-5.7,1.8-5.7h0Z"/><path d="m4058.8,796.7c13.6,4.5,27.8,8.1,41.9,11.5,127.6,29.3,259.6,33.9,390,27.4,43.6-2.2,87.1-5.7,130.4-10.7,36-4.3,72.1-9.2,107.5-17.1,6.7-1.7,13.7-3,19.9-6,0,0,3.3,5,3.3,5-3.4,2.2-7.1,3.3-10.8,4.7-10.5,3.5-21.3,6.2-32,8.7-85.8,19.2-173.7,27.7-261.5,30.9-82.4,2.9-165.2-.6-246.7-13.2-48.9-7.9-97.6-18-144.1-35.6,0,0,2.2-5.6,2.2-5.6h0Z"/><circle cx="4390.2" cy="1298.6" r="27.9"/><path d="m4737.6,840.2c-96.7,23.7-195.6,39.7-295.1,43.6-85.4,1.9-171.3-2.6-255.2-19-35-7-69.7-16.1-102.7-30-6.7-2.9-13.2-5.9-19.5-9.6,0,0,3.1-5.1,3.1-5.1,1.4.8,3,1.6,4.5,2.3,11.1,5.2,22.6,9.5,34.3,13.3,26.7,8.7,54.4,15.2,82,20.2,125.3,21.5,253.8,23.3,379.9,7.2,56.1-7.1,112.1-16.6,167.3-28.7,0,0,1.4,5.8,1.4,5.8h0Z"/><path d="m4171.8,1008.9c23.8,7.1,48.5,11.1,73,14.4,59,7.7,118.8,8.6,178.2,6.7,54.4-2.3,109.3-4.1,163-13.9,19.6-3.5,38.6-9.2,57.6-15-4.6,2-9.2,3.9-13.8,5.8-9.2,3.6-18.8,7.2-28.3,10-62.6,18-128.4,21.1-193.1,23.5-54.9,1.3-110.3-1.4-164.4-11.4,0,0-7.4-1.4-7.4-1.4l-3.7-.7c-3.3-.7-7.9-1.8-11-2.5-16.9-4-34.1-8.6-50.1-15.4h0Z"/><path d="m4818.2,729.5c.1-30.2-33.3-52-102-66.7-25.6-5.5-54.8-9.8-86.3-13,1.2,4.4,2,8.9,2.2,13.9.2,5.3-1.2,10.5-3.8,15.2,60.8,6.6,103.4,15.9,128,25.5,20.8,8.1,33.1,17.6,32.9,25.5v1.3s.1,1.3.1,1.3c.9,6.5-8.3,15.4-17.9,23.9-8.6,7.7-10.9,15-12.8,20.9-1.8,5.6-3.6,11.5-13.7,22.4l-3.3,3.6-.7,7-1.8,5.7c-1.8,5.6-4.8,10.7-8.9,14.9-8.4,4.9-11.4,17.5-13.7,27.3-2.7,11.4-5.7,27.7-9.1,49.9-6.3,41-13.2,96.6-20.5,155.6-9.1,73.1-18.5,148.6-28.3,210.3-13.8,86.8-22.6,107.1-25.7,111.8-26.1,11.2-29.6,28.8-31.7,39.5-.4,2-1,5.1-1.5,6,0,0-.2.1-.5.2-58.9,20.3-180.3,28.3-238.6,20.6l-1.8-.2c-100.3-8-126.1-17.7-132.6-21.6l-1.3-.8-1.5-.5c-1.4-.5-2.3-.9-2.9-1.2,0-.8,0-2,0-3-.1-9-.3-25.5-25.3-36.3-2.1-8.5-5.8-33.8-9.1-56.4-7-48.5-8.3-56-9.2-62.1-.5-3-.9-5.6-2-12.8v-.2c-2.4-14.3-8.5-50.2-16.3-95.7-18-104.8-45.1-263.1-51-305-1.1-12.7-3.7-20-14.7-24.4-1.6-.7-3.2-1.3-6.5-5.1h0c-1.6-1.8-2.3-5.8-2.8-8.6-.4-2-.7-3.8-1.3-5.7-2.4-7.3-7.4-9.9-10.9-10.9-.9-.8-2.7-2.6-5.5-6.2-2-2.6-2-3.2-1.9-7.3,0-4.5.2-11.2-3.7-19.3-4.4-9.1-13.1-12.8-19.5-15.5-1.5-.7-3-1.3-4-1.8l-.5-.3c-5.7-2.7-6.7-6.3-7-9-.8-8,5.1-19.1,13.4-25.3l3.2-2.4,1.2-2.9c2.1-1.9,17.5-13.5,99.1-24.7,18.1-2.5,38-4.7,59.2-6.7v-22.8c0-2.2.2-4.3.7-6.4-33.3,3.1-63.4,6.7-88.7,10.9-68.1,11.2-87.8,23.2-94.7,33.9-15.1,12.6-23.9,32-22.3,49.3,1.4,14.2,9.6,25.7,23,32.2,2,1.1,4,1.9,6,2.7,1.5.7,4,1.7,5.2,2.4.5,1.3.5,2.6.4,5.2,0,5.9-.2,14.9,8,25.5,3.6,4.6,7.8,9.5,12.6,12.9,1.1,5.5,3.2,13.5,9.2,20.2,5.6,6.4,10.4,9.4,13.8,11.2,0,.5.1,1.2.2,1.9v.9c6,41.6,33.3,200.9,51.3,306.2,7.8,45.3,13.9,81.1,16.2,95.4,1.1,7.3,1.5,9.9,2,13,1,6,2.2,13.4,9.2,61.7,4.6,31.7,7.2,48.4,9.2,57.4,2.2,9.8,5.2,16.2,13.9,20,.1,0,.3.1.4.2l.9.6,1.1.4c6.4,2.6,7.8,4.7,8,5,.5.8.5,3,.5,5.3,0,7.6.3,23.2,21.3,30.9,19.3,10.5,66.3,18.6,143.7,24.8h.7c15.8,2.1,35.8,3.1,57.9,3.1,64.4,0,146.5-8.7,194.1-25.2l.6-.2c15.7-6.2,18.3-19.6,19.9-27.6,1.7-8.6,2.8-13.9,16.3-19.2l.7-.3.6-.3c10.6-5.5,21.6-19.1,38.7-124.7,10.3-63.4,20.2-142.6,29.7-219.1,6.7-53.7,13-104.4,18.8-143.7,7.2-48.8,11.3-64.3,13.2-69.2l.4-.3c8.7-7.9,15.2-18,18.7-29.2l2.8-8.7v-.5c11.6-13.6,14.5-22.7,16.7-29.5,1.4-4.5,1.8-5.6,4.5-8,11.9-10.6,29.8-26.6,27.5-48.4Z"/><path d="m4046.5,711.4h0s0,0,0,0Z"/><circle cx="4368.7" cy="1381.2" r="21.7"/><circle cx="4311.5" cy="1263.7" r="24.6"/><circle cx="4471.3" cy="1294.4" r="28.9"/><circle cx="4320.7" cy="1332" r="28.9"/><circle cx="4228.7" cy="1283.2" r="30.6"/><circle cx="4590.9" cy="1264.2" r="29.3"/><line x1="4452" y1="617.1" x2="4494.4" y2="632.3" style="fill:none; stroke:#fdfae0; stroke-miterlimit:10; stroke-width:6px;"/><line x1="4247" y1="627.8" x2="4286.8" y2="617.9" style="fill:none; stroke:#fdfae0; stroke-miterlimit:10; stroke-width:6px;"/><path d="m4701.1,878.1c-1.8,10.5-3.3,21.1-4.6,31.7-16.5,137.5-27.7,277.4-58.4,412.7-4.6,18.2-9,36.6-16.6,53.8-1.1,2.4-2.3,4.9-4,7,2.5-4.7,3.9-9.9,5.2-15.1,3.9-15.5,6.6-31.3,9.1-47,16.2-105.5,27.1-211.8,43.8-317.3,7-42.2,13.3-84.8,25.4-125.9h0Z" style="fill:#fdfae1;"/><circle cx="4293.9" cy="1381" r="17.1"/><path d="m4440.5,595c0,0-.2.2-.2.3,0,0,.2-.2.2-.3Z" style="fill:#fdfae1;"/><path d="m4633,687.7c-1-1.4-1.5-3.3-1.5-5.4v-8.9c-.2.1-.5.3-.7.5,0,0-.1,0-.2,0,.4-1.3.6-2.7.9-4v-19.3c0-.2,0-.3,0-.4,0-.2,0-.5,0-.7,0-1.2,0-2.5.1-3.8,0,0,0-.1,0-.2-.5-1.8-1.1-3.6-1.6-5.4-1.3-3.9-2.7-7.8-3.7-11.9-1.2-4.8-1.7-9.5-1.1-14-4.5-7.5-9.8-14.4-14.4-21.8-3.5-5.4-6.6-11.2-9.2-17.1-.9-1.3-1.7-2.6-2.5-3.9-1.7-2.9-3.2-5.9-4.9-8.7-2.7-2.7-5.5-5.3-8.3-7.9-4-3.8-7.6-7.8-10.7-12.2-1.2-1.1-2.2-2.3-3.3-3.6-.2-.2-.3-.3-.5-.5-2.6-2-5.2-4-7.7-6-1.9-1.4-3.7-2.9-5.5-4.4-.1,0-.2-.2-.3-.3l.2.2c-10.1-8.5-19-18.4-29.1-27-5.7-4.8-11.4-9.7-16.7-14.9-5.3-5.1-9.9-11.3-14.1-17.6-2.1-2.4-4.1-4.9-5.9-7.5-2.6-1.4-5.3-2.8-7.9-4.1-3.1,0-6.1-.3-9.1-.9-1.1-.2-2.2-.5-3.3-.9-2-.6-3.9-1.4-5.7-2.3-7.8-1.1-15.6-2.3-23.4-3.7-.1,0-.2,0-.4-.1-5.7.5-11.4,1.1-17.1,2-1.2.9-2.8,1.4-4.7,1.4h-22c-2.1,0-3.8-.6-5.1-1.7-4.6,1-9.2,1.9-13.9,2.7-2,0-4,0-5.8.9-1.9,1.2-3.7,2.5-5.4,3.9-.2,0-.3,0-.5,0-9.5.4-18.3,3.9-26.9,7.7-1-.5-2.2-.8-3.3-.8-5.6-.3-11.4,1.1-16.2,4l.8,5.7c.1,3.9-.7,7.5-2.4,10.8-.3,1-.8,2-1.2,3-.2,1.2-.5,2.4-.9,3.6-1.1,4.5-3.1,8.5-6.2,11.8-2.1,3.3-4.9,6-8.3,8.1-2.4,2.3-5.8,5-7.8,6.1-.2,0-.4.2-.6.3-1,.4-1.9.8-2.9,1.2-1.4,1.7-2.9,3.4-4.3,5.2-4.1,4.9-8.4,9.8-12.5,14.8-.5,1-1.1,2.1-1.7,3.1-3.3,5.8-7.3,11.2-11.4,16.5-.2.4-.4.8-.6,1.2-3.2,6.3-8.4,11-14.5,14.1-.2.8-.5,1.6-.8,2.4-2,5.8-4.5,11.4-7,17-1.4,3.6-2.9,7.1-4.6,10.5-.9,1.9-1.7,3.9-2.6,5.8-.6,1.5-1.2,3-1.9,4.5-1.3,3.4-2.6,6.8-3.9,10.2.5-1.1.9-2.2,1.4-3.3-1.9,5.6-4.2,11.1-6.8,16.4-1.3,2.6-3,5-4.8,7.2-1.4,2.8-3.1,5.4-5,7.8-1.7,15.1-4.5,30.5-2.6,45.6,2.2,16.9,8.7,32.9,11.8,49.6,3.5-.9,6.9-2,10.3-3.1.8-.2,1.5-.5,2.3-.7,1.1.8,2.5.9,3.7,1.2,2.8.5,5.7.5,8.5.9,3.9.4,7.9,1.1,11.8.9,3.8-.2,7.7-.6,11.5,0,5.7.9,11.3,0,17-.9,2.2-.2,4.5-.4,6.7-.6-.1.2-.3.5-.4.7-.9,1.2-1,2.4-.6,3.7,0,.1.8.3.8.3,2.3.7,4.8.4,7.2,0,1.2-.2,2.5-.4,3.7-.5.5,0,1,0,1.5.1h.2c3.1.6,6.4,0,9.5.4,9.1-.2,18.2.2,27.3.2,9.4.1,18.9,0,28.2,1.5,5.4.9,10.8.5,16.2.5,5.5.3,10.9,1.3,16.4,1.4,4.3,0,8.6-.3,12.9-.1,5.9.2,11.7.5,17.6.2,5.8,0,11.5.6,17.3.4,5.7.2,11.3.4,17,0,8.1,0,16.1,1.1,24.1,1.8,4.9.5,9.7,1.3,14.6,1.3,4.8,0,9.6-.2,14.3-.9,2.8-.6,5.5-1.7,8.1-2.8,2.2-1,4.5-2.1,6.8-3,4.7-1.5,9.5-2.5,14-4.5,2.1-.9,4.1-2,6.1-3.1,2.4-.1,4.7-.4,6.7-1.7,2-1.3,3.9-2.8,5.8-4.3,2.7-.8,4.9-1.6,5.2-1.7,1.2-.6,2.3-1.4,3.4-2.2,1.9-.6,4.3-1.4,7.5-2.6,1.9-.7,3.9-1.7,5.8-2.7.5,0,.9,0,1.4-.1.8-.2,1.5-.5,2.2-1,.1,0,.3,0,.4,0,.1,0,.2,0,.4-.1.6,0,1.1,0,1.7,0,0,.4,0,.8,0,1.1-1.5,1.2-2.8,2.6-3.8,4.3-.2.2-.2.5-.1.8.2.2.5.4.8.5-2.4.8-5,1.6-7.1,2.1-3.9,1-7.8,2.1-11.8,2.7.3,0,.6,0,.9,0,6.3,0,12.8-.3,18.9-1.9,3-.9,6.3-4.7,7.2-6.6,0-.1.2-.3.3-.4.2-.1.4-.2.6-.3.9,0,1.8-.3,2.6-.9,2.7-1.4,5.3-3.1,7.6-5.1,6.6-5.3,12.6-11.3,17.9-17.9,1.6-1.9,3.1-4,4.4-6.1-.2-.3-.4-.7-.5-1.2-.9-3.2-.7-6.7,0-10.3Zm-141.1,56.1c-.6,1.7-1.1,3.4-1.7,5-.6,1.9-2.4,2.9-4.3,2.4-1.8-.4-3-2.6-2.4-4.3.6-1.7.2,6.3.8,4.6.6-1.9,3.3,2.9,5.3,3.4,1.8.4,2.9-12.9,2.4-11.2Z" style="fill:#fdfae1;"/><path d="m4451,434.6c0-.1-.2-.3-.3-.4-1-.4-2-.3-2.9,0-1.3.4-2.6.8-3.8,1.5-.2.1-.4.2-.6.4-.2-1.6-1.6-2.5-4.6-2.5-.9,0-1.8.3-2.7.6-.8-.3-2-.5-3.4-.4-2.2.2-4.5.9-7,2-.4-2-2.3-2.3-4.3-2.2-1.8.2-3.5.7-5.2,1.4-2.2-1.3-5-1.3-7.4-.7-.2-.4-.7-.5-1.7,0-1,.4-1.9.9-2.8,1.4.5-.9,1-1.9,1.3-2.9-.1-.4,0-1-.6-1-1.4-.4-2.6,1-3.8,1.6-2,1.4-3.8,2.9-5.6,4.5,0,0,0,0,0,0,0,0,.2-.2.2-.3,1.8-2.3,3.7-4.7,4.6-7.5-.3-1.4-1.7-1.1-3.5,0,.8-1,1.5-2.1,2.1-3.2.5-.7.7-1.5.3-2.3-1.1-.4-2.1,0-3,.7.8-1.7-.4-2.7-2.3-1.5-.2.1-.4.2-.6.4,0-.2,0-.4-.2-.5,0-.4,0-.8,0-1.2-.3-.1-.6-.1-.9-.2-.4-2.6-8.5,4.3-9.4,5.1,0,0,0,0-.1.1-.5.4-1,.8-1.3,1.1.3-1,.1-1.6-.9-1.5-3.5.1-6.3,2.8-9,4.7-8.8,7.7-12,11-23.3,23.5-4.2,4.9-8.4,9.9-11.9,15.3-.9,1.5-1.8,3-2.6,4.5-.5.6-.6,1.2-.4,1.9,0,0,.2.1.3.2-2.8,3.9-5,7.7-4.5,9.4.6.1,1.1.3,1.6,0,1-.3,1.8-.8,2.6-1.3.7-.4,1.4-.8,2.1-1.2,1.1-.7,2.2-1.5,3.2-2.4,2.1-.8,4.8-2.9,5.9-3.7.6-.5,13.1-7.8,13.6-8.3-2.8,3.6-17.7,14-20.4,17.6-2.9,4.2-1.8,5.9,2.8,2.8,2.2-1.6,4.2-3.3,6.1-5-.3.4-.6.9-.8,1.3-.5.9-1,1.9-1.5,2.8-.5.6-.6,1.2-.4,1.9,0,.4.2.5.6.5-1.2,1.8-2.3,3.6-2.9,5.7-.1,1.2,0,2.6,1.8,1.7,2.4-.9,4.4-2.7,6.5-4.3.6-.4,1.3-.9,2-1.4,9.4-7.7,16.9-17.3,23.3-27.6,0,.2,0,.4.1.5-.2.8-.2,1.5.2,2.3.6.5,1.6.5,2.4.5,1.5-.4,2.9-1,4.2-1.8.3,0,.5-.2.8-.4.9-.3,1.8-.6,2.7-1.1.1.9.7,1.5,2,1.6.7.2,1.5.2,2.2,0-.9,2.1-1.3,3.9-.7,5.1,3.9,3.5,13.1-3.3,19.4-7.7,0,0,0,0,0,0-.1.5-.3,1-.3,1.5-.2,1.1.5,1,1.4,1.1.4,0,1,.2,1.3.2,1.8-.3,3.5-1.2,5.1-2.2-.2.7-.1,1.3.6,1.6.7.2,1.4.5,2.2.3,0,0,.2,0,.3,0,.5.4,1.5,0,2.5-.3,6.2-2.2,10.8-7.3,15.5-11.6,5.2-5.4,10.5-10.9,14.3-17.4.3-1,1.6-3.4-.1-3.3Z" style="fill:#fdfae1;"/><path d="m4529.8,470.6c-1.1-.5-2.3-1-3.4-1.4,0,0,0,0,0,0,1.1.5,2.3,1,3.4,1.4Z" style="fill:#fac27f;"/><path d="m4213,732.9c0,0-.2,0-.2,0,.8-.8,2.3-1.8,3.9-2.8-1.2,1.1-2.4,2.1-3.7,2.9Z" style="fill:#fac27f;"/><path d="m4213.7,657.4c-10.3,0-10.3,16,0,16s10.3-16,0-16Z" style="fill:#fbf1de;"/><path d="m4308.5,702.4h0c-.8,0-1.6,0-2.5,0l-6,.2h0c-2.8.2-5.6.2-8.3.7h0c-11.9,2.4-25.5,4.5-34.8,11.4h0c-2.5,1.8-5.2,5-5.7,7.9h0c-.4,2.2.6,5.3,1.9,7.3h0c1.8,2.6,5.2,4.4,8.2,5.7h0c4.1,1.8,8.8,2.6,13.2,3h0c5.3.6,10.8.3,16.1-.3h0c5.5-.6,11.2-1.6,16.4-3.3h0c5.1-1.7,10.3-3.8,14.7-6.8h0c3.8-2.5,8.1-5.6,10.1-9.5h0c1.4-2.5,2.4-6.6,1.5-9h0c-1.2-3-5.6-5.4-9-6.9h0c-5.6-2.4-12.3-2.9-18.5-3.2h0c-8-.4-16.3.3-24.3,1.6h0c-8.1,1.3-16.1,3.6-23.9,6.3h0c-5.6,1.9-11.3,3.8-16.2,6.9h0c-2.1,1.3-5.2,3-5.6,5h0c-.3,1.6,1.2,4.3,2.6,5.7h0c2.4,2.5,6.5,3.6,10,4.7h0c5.1,1.5,10.6,1.8,15.9,2.4h0c3.2.3,6.4.4,9.6.5" style="fill:none;"/><path d="m4365.2,710.3c-1,1.1-3.4,3.1-3.4,5.1" style="fill:none; stroke:#cf3547; stroke-miterlimit:10; stroke-width:1px;"/><path d="m4627.5,649.5c-11.5-83-79.3-129.6-131.3-187.9-5.5-4.9-11.6.3-8.7-6.4-7.7-3.5-7.7-13.4-20-14.1-8.2,5.2-14.6-2.7-24.8-2.2.2,10.5-5.2-2.3-4.8,5.6,8.5,90.9,62.1,46.3,96.7,134,16.3,33.1,49,163.8-28.9,170.4-1.1-.2-2.3-.4-3.4-.6-7.3,2.8-14.4,6.3-21.6,9.5,15.3.8,30.3,1.5,44.9-1.5,18.7-2.1,91.4-7.1,95.1-10.5,5.3-24.7,27.3-75.4,6.8-96.2Z" style="fill:#ddd2c0;"/><path d="m4400.6,758.8c-1,0-1.9,0-2.9,0-4.8,0-9.5,0-14.3,0,0,0,0,0,0,.1,6,.3,12.1.7,18.1,1.3-.3-.4-.6-.9-.9-1.3Z" style="fill:#ddd2c0;"/><path d="m4308.6,619.2c-2.4,0-4.7.5-6.8,1.5.8,2.5,1.1,5.2.9,7.9,0,0,0,0,0,0,1.2,8.6-1.8,20.4-10.2,21.3-2.7.3-5.2-.8-7.2-2.5-.3,2.1-.4,4.2-.4,6.4,0,19.1,10.6,34.5,23.8,34.5s23.8-15.4,23.8-34.5-10.6-34.5-23.8-34.5Z"/><path d="m4222.6,749.9c-8.4-21.6-12.9-44.9-12.9-69.3,0-62.6,32.8-112.7,79.3-159.2l7-6.8c27.4-27.9,55.9-78.5,88.9-96.3,2.8-1.5,5.6-1.5,8.2,1.6,5.2,6.2,11.4,11.4,19.1,14,5.9,2,10.5,4.1,17.2,4.3,4.2.1,7.5,0,10.3-.5,18.7-2.8,37.4,4.7,50.5,18.3,26.2,27.3,59.3,55.8,83.7,80.2l5.2,6.4c31.2,39.7,52.4,88.8,56.2,138,1.6,20.8-4.8,45-11.1,63.9" style="fill:none; stroke:#000; stroke-miterlimit:10; stroke-width:12.7px;"/><path d="m4364.5,723.5c17.8,44.2,86.4-40.4,51.2-29.3-56.8,17.9-69-14.9-51.2,29.3"/><path d="m4047.6,712.4h0s0,0,0,0Z"/><path d="m4464.7,456.1c1.4,16.4,22.3,28.8,34.9,37.4,5,3.3,10,6.6,14.9,10.5,1.3,1,1.5,2.9.5,4.2-1.1,1.4-3.1,1.5-4.4.3-14.7-13.5-46.9-30.3-47.5-52.3,0-1,1.6-1.1,1.7,0h0Z"/><path d="m4443.8,468.7c2.1,10.7,5.4,21.8,13.1,29.7,5.9,6,13.8,9.3,22,10.9,3.8.9,2.7,6.6-1.2,5.9-16.8-4.3-28.2-14.3-33-31.2-1.5-4.9-2.4-10-3-15-.2-1.4,1.9-1.7,2.2-.3h0Z"/><path d="m4381.5,437.9c-3.7,9.7-7.8,19.3-13.6,28-5.8,8.7-12.9,16.5-20.3,23.9-2.9,2.7-7-1.4-4.2-4.3,11.8-9.8,22.8-20.8,30.4-34.2,2.6-4.4,4.9-9,7.2-13.6,0-.2.3-.2.4-.1.2,0,.2.3.2.4h0Z"/><path d="m4642.1,727.1c4.4-9.8,15.4-16.2,26.1-15.2,10.7,1,20.3,9.4,22.8,19.8" style="fill:none; stroke:#000; stroke-linecap:round; stroke-miterlimit:10; stroke-width:5px;"/><path d="m4120.1,721.5c19.4-22.9,61.1-23.5,81.2-1.2" style="fill:none; stroke:#000; stroke-linecap:round; stroke-miterlimit:10; stroke-width:5px;"/><path d="m4747.6,709.3c-16.4-13.3-44.7-6.7-53.5,12.4" style="fill:none; stroke:#000; stroke-linecap:round; stroke-miterlimit:10; stroke-width:5px;"/><path d="m4127.2,705.6c-9.5-11.5-32.2-3.9-32.9,10.9" style="fill:none; stroke:#000; stroke-linecap:round; stroke-miterlimit:10; stroke-width:5px;"/><path d="m4199.5,693.5c-9.5-8.8-26.5-7.3-34.3,3" style="fill:none; stroke:#000; stroke-linecap:round; stroke-miterlimit:10; stroke-width:5px;"/><path d="m4693.1,702.6c-4.4-9.6-20.2-10.7-25.9-1.8" style="fill:none; stroke:#000; stroke-linecap:round; stroke-miterlimit:10; stroke-width:5px;"/><path d="m4303,594c-11.2,2.1-20.5,8.9-26.7,18.3-2.7,3.7-8.3,0-5.8-4,4-4.9,8.8-9.3,14.3-12.4,5.5-3.1,11.5-4.9,17.6-5.6,1-.1,2,.6,2.1,1.7.1,1-.6,1.9-1.5,2h0Z"/><path d="m4437.7,642.8c24.1-22.8,50.9-24,75.5-1.1,1.3,1.2,1.4,3.3.2,4.6-1.2,1.3-3.3,1.4-4.7.1-4.7-4.5-9.8-8.5-15.5-11.4-18.7-9.9-37.8-2.3-52.5,11.1-2.2,1.9-5.1-1.3-3-3.3h0Z"/><path d="m4363.8,702.4c13.5,3.5,27.9,2.2,41.5-.7,4.6-1,9.1-2.3,13.5-4,.6-.2,1.2,0,1.4.7.2.6,0,1.2-.6,1.4-4.4,1.8-9,3.3-13.7,4.6-9.3,2.4-18.9,3.9-28.6,3.8-4.9,0-9.8-.5-14.6-1.7-1.1-.3-1.8-1.4-1.6-2.6.3-1.2,1.5-1.9,2.6-1.6h0Z" style="fill:#fdfae1;"/><path d="m4634.8,655.8c35.1,3.2,70.2,7.2,104.6,15.2,11.7,2.8,23.2,5.9,34.3,10.9,12,5.3,26.2,16.3,14.5,30.2-9.3,9.8-25.2,14.6-37.7,18.6-34.1,9.8-69.2,14.8-104.3,19.2-81.5,9.4-163.7,12.5-245.8,12.4-93.8-.8-187.9-4.5-280.6-19.9-23.4-4.2-46.6-8.7-69-17.5-5.8-2.5-11.5-5.1-16.7-9.1-7-5.2-11.4-14.2-5.2-22.2,7.5-9.5,22.5-14.1,33.4-17.7,45.4-12.9,92.5-17.4,139.3-21.4,4-.2,4.4,5.5.6,6-34.7,4-69.4,8.7-103.5,16-16.8,3.8-33.6,7.8-49.2,14.9-6,2.9-14.3,7.6-12.7,11.6.5,1.2,2,2.9,3.9,4.3,4.2,3.1,9.2,5.4,14.2,7.3,10.6,4,21.7,6.9,32.8,9.5,34,7.5,68.6,11.6,103.3,15,69.6,6.6,139.5,9.1,209.4,9.3,104.6-.3,210-3.1,313.2-20.8,16.2-3.2,60.3-11.6,68.1-24.5,1.6-2.8-3.1-6.3-5.5-8-11.7-7.5-25.7-11.3-39.2-15.1-33.8-8.6-68.4-13.7-103-18.1-3.9-.6-3.2-6.2.6-6h0Z"/><path d="m4414.2,713.4c-5.1-1.3-10.7-2.1-16.6-2.1-12.7,0-23.9,3.5-31.5,8.8,9.5,24.2,33.8,9.5,48.1-6.7Z" style="fill:#eb608c;"/><path d="m4437,643.8c5-9.6,12.4-18.3,22.1-23.4.5-.3,1.1,0,1.3.4.2.5,0,1-.3,1.3-4.4,2.7-8.4,6.2-11.6,10.2-3.3,4-5.9,8.5-8,13.2-1.1,2.3-4.5.6-3.4-1.7h0Z"/><path d="m4219,612c.8-1.7.7-2.3,1.4-2.7-10.7-27.2-21-53.5-31.9-80.6,9.8,28.2,19.8,56.4,29.8,84.7.2-.5.5-.9.7-1.4Z" style="fill:#fdfae1;"/><text transform="translate(40.2 1959.2)" style="font-family:TTSupersizeBk3D, &apos;210 Supersize&apos;; font-size:285.7px;"><tspan x="0" y="0">Boba</tspan></text><text transform="translate(45.1 2304.9)" style="font-family:TTSupersizeBk3D, &apos;210 Supersize&apos;; font-size:285.7px;"><tspan x="0" y="0">Bao</tspan></text><text transform="translate(31.6 2954.2)" style="font-family:TTSupersizeBk, &apos;210 Supersize&apos;; font-size:285.7px;"><tspan x="0" y="0">Boba</tspan></text><text transform="translate(36.5 3249.9)" style="font-family:TTSupersizeBk, &apos;210 Supersize&apos;; font-size:285.7px;"><tspan x="0" y="0">Bao</tspan></text><text transform="translate(43.2 3856.1)" style="font-family:TTSupersizeBkBOX, &apos;210 Supersize&apos;; font-size:285.7px;"><tspan x="0" y="0">Boba</tspan></text><text transform="translate(41.4 4172.1)" style="font-family:TTSupersizeBkBOX, &apos;210 Supersize&apos;; font-size:285.7px;"><tspan x="0" y="0">Bao</tspan></text><text transform="translate(28.5 992.3)" style="font-family:TTSupersizeBk3Di, &apos;210 Supersize&apos;; font-size:285.7px;"><tspan x="0" y="0">Boba</tspan></text><text transform="translate(13.1 1338)" style="font-family:TTSupersizeBk3Di, &apos;210 Supersize&apos;; font-size:285.7px;"><tspan x="0" y="0">Bao</tspan></text><text transform="translate(803.1 4167.3) rotate(-28.8)" style="font-family:SourceSansPro-Bold, &apos;Source Sans Pro&apos;; font-size:125.1px; font-weight:700;"><tspan x="0" y="0">Good </tspan><tspan x="316.4" y="0" style="letter-spacing:0em;">f</tspan><tspan x="358.6" y="0">or menu </tspan><tspan x="0" y="150.1">titles </tspan><tspan x="314.3" y="150.1" style="letter-spacing:0em;">e</tspan><tspan x="378.1" y="150.1" style="letter-spacing:0em;">t</tspan><tspan x="424.3" y="150.1">c</tspan></text></g></g></svg>