<?xml version="1.0" encoding="UTF-8"?><svg id="b" xmlns="http://www.w3.org/2000/svg" viewBox="0 0 862.9 305.9"><g id="c"><path d="m860.7,105.9c2.7,13.6,2.8,29.7.2,48.2-2.7,19.2-7.6,36-14.4,50.3-6.9,14.4-15.6,26.4-26,36.3-10.5,9.8-22.5,17.4-36.1,22.7-13.6,5.3-28.3,8.4-44.1,9.3-16.5.9-31-.7-43.4-4.8-12.5-4.1-22.7-10.9-30.7-20.5l-4-5.1c-8.2-7.1-14.4-16.3-18.5-27.6l-8.5,60.4-83.1,4.6-3.7-4.6c-6.4,3.4-12.9,6-19.4,7.9-6.5,1.9-12.8,3-18.9,3.3-11.9.7-22.2-.5-31-3.5-8.8-3-15.8-7.7-21.1-14.2l-5.1-6.1c-7.3-5.6-12.3-13.4-15.1-23.2-.3-1.1-.6-2.1-.8-3.3-.8,1.5-1.7,3-2.6,4.4-7.8,12.3-17.3,22.1-28.3,29.5-11,7.4-23.1,12.7-36.3,16-13.2,3.3-26.5,5.3-39.9,6.1l-107.1,6-11.3-11.9L250.5,6.2,356.1.4c8.7-.5,17.4-.5,26.1,0s16.8,1.9,24.4,4.1c7.6,2.2,14.6,5.5,20.8,9.7,6.2,4.2,11.1,9.7,14.8,16.7l4.8,5.6c5,6,8.5,13.5,10.6,22.6,2.1,9.1,2.2,20.2.2,33.1-1.3,8.8-3.6,17.1-6.9,25s-7.5,15-12.6,21.5c5.2,6.5,8.9,14.3,11.1,23.4.3,1.1.5,2.2.7,3.3,3.5-5.5,7.5-10.7,12.1-15.5l10.9-80.2c6.1-3,12.7-6,19.6-8.8s14.2-5.5,21.7-7.8c7.5-2.3,15-4.2,22.6-5.8,7.6-1.6,15.1-2.6,22.5-3,21.8-1.2,38.9,1,51.5,6.5,12.5,5.5,21.6,13.3,27.1,23.3l4.8,5.6c5.7,6.8,9.4,14.8,11.1,23.7.2-.3.3-.7.5-1,7.1-14.5,15.8-26.8,26.4-36.7,10.5-9.9,22.6-17.6,36.3-23,13.7-5.4,28.5-8.5,44.5-9.4,19-1.1,35.3,1.2,49,6.9,13.7,5.6,24.2,14.9,31.3,27.9l3.7,4.1c7.3,8.9,12.3,20.1,15,33.7Zm-26.8,36.3c2.2-16.1,2.1-30-.5-41.6-2.5-11.6-7.1-21.1-13.7-28.6-6.6-7.5-15.1-12.8-25.3-16.1-10.3-3.3-22.1-4.5-35.4-3.8-13.4.7-25.7,3.3-37.2,7.8-11.4,4.5-21.5,10.9-30.3,19.2-8.8,8.3-16.1,18.5-22,30.6-5.9,12.1-9.9,26.2-12.2,42.3-2.2,16.1-2.1,30,.3,41.6,2.5,11.6,7,21.1,13.6,28.5,6.6,7.4,15.1,12.7,25.5,15.9,10.3,3.2,22.2,4.5,35.6,3.8,13.4-.7,25.7-3.3,37.2-7.8,11.4-4.5,21.5-10.8,30.3-19,8.8-8.2,16.1-18.4,22-30.5,5.9-12.1,9.9-26.2,12.2-42.3Zm-206.8-14.7c1.3-9.7,1.2-18.7-.3-27-1.5-8.3-4.9-15.4-10.2-21.2-5.4-5.8-12.9-10.2-22.6-13.2-9.7-2.9-22.1-4-37.3-3.1-13.4.7-26,2.9-37.8,6.5-11.9,3.6-21.9,7.4-30.1,11.4l-8.3,60.3c3.5-2.1,7.7-4.3,12.4-6.3,4.8-2,9.8-3.9,15-5.6,5.2-1.7,10.4-3.2,15.6-4.3,5.2-1.2,10.2-1.9,15-2.2,6.9-.4,11.8,0,14.6.9,2.8,1,4.2,2.5,4.3,4.4-14.1,1.7-27.1,4.4-39,8-11.9,3.7-22.4,8.5-31.5,14.4-9.1,5.9-16.5,13.2-22.2,21.8-5.7,8.6-9.3,18.5-10.9,29.8-1.3,9.5-1.1,17.7.5,24.5,1.6,6.9,4.5,12.5,8.8,16.9,4.2,4.4,9.6,7.6,16.2,9.5,6.6,2,14.1,2.7,22.7,2.2,6.9-.4,14.1-1.9,21.5-4.7,7.4-2.7,14.5-6.7,21.5-11.9l6.7,9.5,58.9-3.3,16.5-117.6Zm-196.4-47.3c1.9-13.8.9-24.9-3-33.2-3.9-8.3-9.6-14.6-17.2-18.9-7.6-4.3-16.4-7-26.5-8.1-10.1-1.1-20.3-1.4-30.7-.8l-88.3,4.9-33.9,242.2,90.8-5c11.2-.6,22.4-2.3,33.6-4.9,11.2-2.7,21.4-7,30.7-13.1,9.3-6,17.2-14,23.7-23.7,6.6-9.8,10.9-22.2,13.1-37.3,1.9-13.3.9-24.2-2.9-32.7-3.9-8.5-9.7-15.2-17.6-20.1,7.6-6.3,13.8-13.5,18.8-21.6,4.9-8.1,8.1-17.3,9.5-27.5Z" style="fill:#cc527e;"/><path d="m750.3,114.1c13.5-.8,18.8,9.9,15.9,32-1.8,12.6-4.9,21.3-9.2,26.1-4.4,4.9-9.7,7.5-15.9,7.8-3.1.2-5.9-.2-8.3-1.1-2.4-.9-4.3-2.6-5.7-5-1.5-2.4-2.4-5.7-2.8-9.9-.4-4.2-.1-9.4.9-15.7,2.9-22.1,11.3-33.5,25.1-34.2Z" style="fill:#cc527e;"/><path d="m550.8,176.7l-1.3,8.6c0,1.3-.6,2.8-1.5,4.6-.8,2.5-2.8,4.7-6,6.6-3.1,1.9-6.2,2.9-9.4,3.1-3.3.2-5.9-.4-7.8-1.8-1.9-1.4-2.6-3.7-2.1-7,.7-5,3.7-8.5,9.1-10.5,5.3-2,11.6-3.2,18.9-3.6Z" style="fill:#cc527e;"/><path d="m360.8,86.3c2.5,1.5,3.4,4.3,2.8,8.6-.7,5.2-2.6,8.6-5.8,10.1-3.1,1.5-7.3,2.4-12.4,2.7l-27,1.5,3.2-23.1,27-1.5c5.6-.3,9.6.3,12.1,1.7Z" style="fill:#cc527e;"/><path d="m354.9,172.4c3.1,1.2,4.3,4.5,3.6,9.7-1,6.1-3.4,9.9-7.2,11.5-3.8,1.5-8.3,2.5-13.4,2.7l-31.9,1.8,3.6-25.3,31.9-1.8c5.8-.3,10.2.1,13.4,1.4Z" style="fill:#cc527e;"/><path d="m158.1,246.2l38.3,50-88.8,4.9-4.9-5.8c-6.1,3.1-12.6,5.6-19.4,7.3-6.8,1.8-13,2.8-18.6,3.1-10.5.6-19.5-.7-27.1-3.8-7.5-3.1-13.7-7.6-18.5-13.3l-3-3.6c-6.3-5.7-10.7-12.7-13.4-20.9-2.6-8.2-3.3-17.2-2.1-27,1.3-10.5,4.1-19.9,8.4-28.2,4.3-8.2,10-15.7,16.8-22.4-1.7-6.8-2.1-14.3-1.2-22.4.8-7.2,2.9-14.6,6.3-22.1,3.4-7.5,8.1-14.3,13.9-20.5,5.8-6.2,12.7-11.3,20.8-15.4,8.1-4.1,17.3-6.4,27.5-7,10.3-.6,19.2,1,26.9,4.6,7.6,3.7,13.5,9.2,17.5,16.5l3.2,3.6c3.7,4.6,6.3,10,7.9,16.4,1.6,6.3,2,13.5,1.2,21.5-.7,3.8-1.6,7.5-2.6,10.9l32.6-1.8,6.7,9.6c-4.8,14.8-9.6,27.7-14.5,38.7-4.9,11-9.5,20-14,27Zm4.8-61.1l-40.1,2.2c-1.2,3.2-2.9,6.7-5,10.4-2.1,3.7-4.1,7.1-6.2,10.3l-8.9-12.2c7.8-5.5,14.1-11.7,19-18.6,4.9-6.9,7.8-14.8,8.9-23.5.8-6.7.4-12.7-1.3-18-1.6-5.3-4.2-9.7-7.7-13.2-3.5-3.5-7.8-6.1-13-7.9-5.2-1.7-11-2.4-17.4-2.1-8.1.5-15.3,2.3-21.7,5.5s-12,7.2-16.5,12c-4.6,4.8-8.3,10.1-11,15.8-2.7,5.8-4.5,11.5-5.2,17.2-.4,4.8-.3,9.4.4,13.7.7,4.3,1.9,8.4,3.5,12.4-7.6,5.7-13.9,12.5-18.7,20.2-4.8,7.8-7.9,16.8-9.2,27.1-.8,6.7-.4,13.1,1.2,19.1,1.6,6,4.3,11.2,8.2,15.6,3.9,4.4,9,7.7,15.1,10.1,6.2,2.4,13.4,3.3,21.7,2.9,6.2-.3,12.9-1.6,20.2-3.8,7.3-2.2,14.1-5.4,20.3-9.8l7,8.7,56.7-3.2-27.7-36.3c5.1-6.7,10-14.6,14.7-23.7,4.6-9.1,8.9-19.4,12.7-30.9Z" style="fill:#cc527e;"/><path d="m90.6,150.7c.8,1.5,1.1,3.2.8,5.2-.3,2.3-1.3,4.5-2.9,6.6-1.6,2.1-3.9,4.5-6.9,7.2-2.6-4.1-3.6-8.4-3.2-12.7.2-2.2,1-4.1,2.3-5.7,1.3-1.6,3-2.5,5.1-2.6,2.3-.1,3.9.5,4.7,2Z" style="fill:#cc527e;"/><path d="m61,218.3l17.6,23.4c-2.8.8-5.5,1.2-8.3,1.1-2.8,0-5.2-.6-7.4-1.7-2.2-1.1-3.8-2.7-5-4.8-1.2-2.1-1.6-4.9-1.2-8.3.1-1.6.7-3.3,1.6-5,.9-1.7,1.8-3.2,2.6-4.7Z" style="fill:#cc527e;"/></g></svg>