<?xml version="1.0" encoding="UTF-8"?><svg id="b" xmlns="http://www.w3.org/2000/svg" viewBox="0 0 859.3 321.1"><g id="c"><path d="m149.3,109.4c-2.5-1.5-6.5-2-12.1-1.7l-27,1.5-3.2,23.1,27-1.5c5.1-.3,9.2-1.2,12.4-2.7,3.1-1.5,5.1-4.9,5.8-10.1.6-4.3-.4-7.2-2.8-8.7Z" style="fill:#cc527e;"/><path d="m143.4,195.5c-3.1-1.2-7.6-1.7-13.4-1.4l-31.9,1.8-3.6,25.3,31.9-1.8c5.1-.3,9.6-1.2,13.4-2.7,3.8-1.5,6.2-5.4,7.2-11.5.7-5.2-.5-8.4-3.6-9.7Z" style="fill:#cc527e;"/><path d="m340.9,148.2c-13.9.8-22.2,12.2-25.1,34.2-1,6.3-1.3,11.5-.9,15.7.4,4.2,1.3,7.4,2.8,9.9,1.5,2.4,3.4,4.1,5.7,5,2.4.9,5.1,1.3,8.3,1.1,6.3-.3,11.6-3,15.9-7.8,4.4-4.9,7.4-13.6,9.2-26.1,2.9-22.1-2.4-32.7-15.9-32Z" style="fill:#cc527e;"/><path d="m546.3,137.8c-2.6.1-5.6,1.2-8.8,3-3.2,1.9-6.3,4.7-9.2,8.4l-5.9,42c1.5,2.8,3.4,5,5.8,6.8,2.4,1.7,5.5,2.5,9.3,2.3,6.4-.4,11.8-3.4,16.2-9,4.4-5.7,7.3-13.5,8.7-23.6,1.2-8.8.5-16-2-21.8-2.5-5.7-7.3-8.4-14.3-8Z" style="fill:#cc527e;"/><path d="m726.6,190.8c-.5,3.2.2,5.6,2.1,7,1.9,1.4,4.5,2,7.8,1.8,3.1-.2,6.3-1.2,9.4-3.1,3.1-1.9,5.1-4.1,6-6.6.9-1.8,1.4-3.4,1.5-4.6l1.3-8.6c-7.3.4-13.6,1.6-18.9,3.6-5.3,2-8.4,5.5-9.1,10.5Z" style="fill:#cc527e;"/><path d="m858.2,106.1c-1.5-10.1-5.3-18.8-11.5-26.3l-4.8-5.6c-5.5-10-14.6-17.8-27.1-23.3-12.6-5.5-29.7-7.7-51.5-6.5-7.4.4-14.9,1.4-22.5,3-7.6,1.6-15.1,3.5-22.6,5.8-7.5,2.3-14.7,4.9-21.7,7.7-7,2.9-13.5,5.8-19.6,8.8l-10.9,80.2c-2.8,2.9-5.4,6-7.8,9.2.8-12.3,0-23.5-2.1-33.6-3-14-8.3-25.6-16-34.8l-3.2-3.8c-6.2-11-14.6-19.3-25.1-24.9-10.5-5.6-22.7-7.9-36.7-7.2l-4.9.3,5.9-41.4-9.7-13.6-101.4,5.6-17,121.9c-2.8-8.2-6.7-15.3-11.6-21.2l-3.7-4.1c-7.2-13-17.6-22.2-31.3-27.9-13.7-5.6-30.1-7.9-49-6.9-16,.9-30.8,4-44.5,9.4-13.7,5.4-25.8,13-36.3,23-10.5,9.9-19.3,22.2-26.4,36.7-5.1,10.6-9.1,22.5-11.9,35.6-1.8-3.8-4-7.2-6.5-10.4,5.1-6.5,9.3-13.7,12.6-21.5,3.3-7.8,5.6-16.2,6.9-24.9,1.9-12.9,1.9-24-.2-33.1-2.1-9.1-5.6-16.7-10.6-22.6l-4.8-5.6c-3.7-6.9-8.6-12.5-14.8-16.7-6.2-4.2-13.1-7.4-20.8-9.7-7.7-2.2-15.8-3.6-24.4-4.1-8.6-.5-17.3-.5-26.1,0l-105.6,5.9L0,309.2l11.3,11.9,107.1-6c13.4-.7,26.6-2.8,39.9-6.1,13.2-3.3,25.3-8.7,36.3-16,3.1-2.1,6.1-4.4,8.9-6.8l7.8-55.9,37.1-2.1c0-.1,0-.3-.1-.4-2.5-11.6-2.6-25.5-.3-41.6,2.2-16.1,6.3-30.3,12.2-42.3,5.9-12.1,13.2-22.3,22-30.6,8.8-8.3,18.9-14.7,30.3-19.2,11.4-4.5,23.8-7.1,37.2-7.8,13.4-.7,25.2.5,35.4,3.8,10.3,3.3,18.7,8.6,25.3,16.1,6.6,7.5,11.2,17,13.7,28.6,2.5,11.6,2.7,25.5.5,41.6-2.2,16.1-6.3,30.3-12.2,42.3-3.7,7.6-8,14.4-12.8,20.5,0,0,0,0,0,0,.9.6,1.7,1.2,2.6,1.9,1.7,1.3,3.3,2.7,4.8,4.1,3.8,3.7,7,7.9,9.6,12.7l4.2,5c.2.2.4.5.5.7,3.4-4.2,6.5-8.7,9.4-13.5l-3.2,23.3c1.1,2.1,2,4.3,2.8,6.6.5,1.3,1,2.7,1.4,4.1.5,1.6.9,3.2,1.3,4.9.2,1.1.5,2.2.7,3.3.1.6.2,1.2.3,1.8l1.1,1.2,1.5-.7.7-.3c6.3-3.1,13-6.1,20.1-9,2.7-1.1,5.4-2.2,8.2-3.2,4.6-1.7,9.4-3.3,14.1-4.8,1.7-.5,3.5-1,5.3-1.5,6-1.7,12-3.2,18.1-4.4,6.9-1.4,13.7-2.4,20.4-2.9,1,0,1.9-.1,2.9-.2h.4c7.2-.4,13.9-.5,20.2-.1,6.3.3,12.1,1,17.5,2,6.5,1.2,12.3,3,17.4,5.2,0,0,.1,0,.2,0,1.8.8,3.5,1.6,5.2,2.5,1.6.8,3.1,1.7,4.6,2.7,8.2-4.9,15.9-10.9,23.2-18.2,9.2-9.2,17.3-20.4,24.3-33.5.4,3.8,1,7.3,2,10.6,2.8,9.8,7.8,17.5,15.1,23.2l5.1,6.1c1.6,2,3.4,3.8,5.4,5.4.6-.3,1.1-.6,1.7-1,1.7-.9,3.4-1.8,5.2-2.6,2.6-1.3,5.3-2.4,8-3.5,3.6-1.4,7.2-2.7,11-3.8,11.2-3.4,23.2-5.4,35.7-6.1h.3c2.5-.2,5-.2,7.4-.3s4.8,0,7.2,0c2.4,0,4.7.2,6.9.4,8,.7,15.4,2.1,22.4,4.2,3,.9,5.8,1.9,8.6,3,4.7,1.9,9.1,4.3,13.1,7,2.5,1.7,4.9,3.6,7.2,5.6l37.1-2.1,19-135.6c1.6-12.2,1.7-23.3.3-33.4Zm-638.9-2.7c-1.4,10.2-4.6,19.4-9.5,27.5-4.9,8.1-11.2,15.3-18.8,21.6,7.9,4.9,13.8,11.6,17.6,20.1,3.9,8.5,4.8,19.4,2.9,32.7-2.1,15.1-6.5,27.5-13.1,37.3-6.6,9.8-14.5,17.7-23.7,23.7-9.3,6-19.5,10.4-30.7,13.1-11.2,2.7-22.4,4.3-33.6,4.9l-90.8,5L53.7,47.2l88.3-4.9c10.4-.6,20.6-.3,30.7.8,10.1,1.1,18.9,3.8,26.5,8.1,7.6,4.3,13.3,10.6,17.2,18.9,3.9,8.3,4.8,19.4,3,33.2Zm410.4,58.6c-2.2,16.3-6.4,30.7-12.5,43.1-6.1,12.4-13.3,22.9-21.7,31.5-8.4,8.6-17.5,15.1-27.3,19.7-9.8,4.6-19.5,7.1-29.1,7.6-8.2.5-15.4-.6-21.4-3.1-6-2.5-11-6-15.1-10.4l-8.2,12.5-48.7,2.7,33.9-242.2,66.8-3.7-9.1,64.1c5-2.8,10.3-5.1,15.9-6.9,5.6-1.8,12-2.9,19.3-3.3,10.2-.6,19.3,1.1,27.3,5,8,3.9,14.5,9.7,19.6,17.3,5.1,7.6,8.5,17.1,10.4,28.3,1.9,11.2,1.9,23.8,0,37.8Zm201.3-34.4l-16.5,117.6-58.9,3.3-6.7-9.5c-7,5.2-14.2,9.2-21.5,11.9-7.4,2.7-14.5,4.3-21.5,4.7-8.6.5-16.1-.3-22.7-2.2-6.6-2-11.9-5.1-16.2-9.5-4.2-4.4-7.1-10-8.8-16.9-1.6-6.9-1.8-15-.5-24.5,1.5-11.3,5.1-21.2,10.9-29.8,5.7-8.6,13.1-15.9,22.2-21.8,9.1-5.9,19.6-10.7,31.5-14.4,11.9-3.7,24.9-6.4,39-8-.1-2-1.6-3.4-4.3-4.4-2.8-1-7.6-1.3-14.6-.9-4.8.3-9.8,1-15,2.2-5.2,1.2-10.4,2.6-15.6,4.3-5.2,1.7-10.2,3.6-14.9,5.6-4.8,2-8.9,4.1-12.4,6.3l8.3-60.3c8.2-4,18.3-7.8,30.1-11.4,11.9-3.6,24.5-5.8,37.8-6.5,15.2-.8,27.6.2,37.3,3.1,9.7,2.9,17.2,7.3,22.6,13.2,5.4,5.8,8.8,12.9,10.2,21.2,1.5,8.3,1.5,17.3.3,27Z" style="fill:#cc527e;"/></g></svg>